<svg width="40" height="40" viewBox="0 0 40 40" fill="none" xmlns="http://www.w3.org/2000/svg">
<rect width="40" height="40" rx="8" fill="#1C052E"/>
<path d="M24.5 9.5C24.8978 9.5 25.2794 9.65804 25.5607 9.93934C25.842 10.2206 26 10.6022 26 11V29C26 29.3978 25.842 29.7794 25.5607 30.0607C25.2794 30.342 24.8978 30.5 24.5 30.5H15.5C15.1022 30.5 14.7206 30.342 14.4393 30.0607C14.158 29.7794 14 29.3978 14 29V11C14 10.6022 14.158 10.2206 14.4393 9.93934C14.7206 9.65804 15.1022 9.5 15.5 9.5H24.5ZM15.5 8C14.7044 8 13.9413 8.31607 13.3787 8.87868C12.8161 9.44129 12.5 10.2044 12.5 11V29C12.5 29.7956 12.8161 30.5587 13.3787 31.1213C13.9413 31.6839 14.7044 32 15.5 32H24.5C25.2956 32 26.0587 31.6839 26.6213 31.1213C27.1839 30.5587 27.5 29.7956 27.5 29V11C27.5 10.2044 27.1839 9.44129 26.6213 8.87868C26.0587 8.31607 25.2956 8 24.5 8H15.5Z" fill="white"/>
<path d="M20 29C20.3978 29 20.7794 28.842 21.0607 28.5607C21.342 28.2794 21.5 27.8978 21.5 27.5C21.5 27.1022 21.342 26.7206 21.0607 26.4393C20.7794 26.158 20.3978 26 20 26C19.6022 26 19.2206 26.158 18.9393 26.4393C18.658 26.7206 18.5 27.1022 18.5 27.5C18.5 27.8978 18.658 28.2794 18.9393 28.5607C19.2206 28.842 19.6022 29 20 29Z" fill="white"/>
</svg>
