<svg width="40" height="40" viewBox="0 0 40 40" fill="none" xmlns="http://www.w3.org/2000/svg">
<rect width="40" height="40" rx="8" fill="#2E0726"/>
<g clip-path="url(#clip0_2112_15099)">
<path d="M31.2144 20.5429L28.8625 9.92533C28.776 9.53713 28.5391 9.19907 28.2037 8.98533C27.8683 8.77158 27.4618 8.69961 27.0734 8.78519L16.4559 11.1371C16.2636 11.1797 16.0815 11.2598 15.9201 11.3727C15.7588 11.4857 15.6212 11.6293 15.5153 11.7955C15.4095 11.9616 15.3374 12.147 15.3031 12.341C15.2689 12.535 15.2732 12.7338 15.3158 12.9261L16.3012 17.3746H10.25C9.85231 17.375 9.47104 17.5332 9.18983 17.8144C8.90863 18.0956 8.75045 18.4769 8.75 18.8746V29.7496C8.75045 30.1472 8.90863 30.5285 9.18983 30.8097C9.47104 31.0909 9.85231 31.2491 10.25 31.2496H21.125C21.5227 31.2491 21.904 31.0909 22.1852 30.8097C22.4664 30.5285 22.6246 30.1472 22.625 29.7496V23.9819L30.0742 22.3319C30.4624 22.2455 30.8005 22.0086 31.0142 21.6732C31.228 21.3378 31.2999 20.9313 31.2144 20.5429ZM21.125 29.7496H10.25V18.8746H16.6335L17.6677 23.5436C17.7416 23.8765 17.9265 24.1743 18.1922 24.3881C18.4578 24.6018 18.7883 24.7188 19.1293 24.7198C19.2394 24.7197 19.3491 24.7076 19.4566 24.6837L21.1254 24.3141L21.1259 29.7496H21.125ZM29.75 20.8674L19.1322 23.2192L16.7803 12.6016L27.398 10.2496L29.7508 20.867L29.75 20.8674Z" fill="white"/>
<path d="M11.75 20.3747H13.625V22.2497H11.75V20.3747ZM11.75 26.3747H13.625V28.2497H11.75V26.3747ZM17.75 26.3747H19.625V28.2497H17.75V26.3747ZM14.75 23.3747H16.625V25.2497H14.75V23.3747ZM18.5682 13.745L20.3989 13.3398L20.8041 15.1705L18.9734 15.5757L18.5682 13.745ZM25.7247 18.3024L27.5554 17.8969L27.9609 19.7275L26.1302 20.133L25.7247 18.3024ZM22.1471 16.0219L23.9777 15.6165L24.3831 17.4471L22.5526 17.8525L22.1471 16.0219Z" fill="white"/>
</g>
<defs>
<clipPath id="clip0_2112_15099">
<rect width="24" height="24" fill="white" transform="translate(8 8)"/>
</clipPath>
</defs>
</svg>
