<svg width="40" height="40" viewBox="0 0 40 40" fill="none" xmlns="http://www.w3.org/2000/svg">
<rect width="40" height="40" rx="8" fill="#2A2E05"/>
<path d="M30 24C30 26.828 30 28.243 29.121 29.121C28.243 30 26.828 30 24 30H16C13.172 30 11.757 30 10.879 29.121C10 28.243 10 26.828 10 24V20C10 17.172 10 15.757 10.879 14.879C11.757 14 13.172 14 16 14H24C26.828 14 28.243 14 29.121 14.879C30 15.757 30 17.172 30 20V24Z" stroke="white" stroke-width="1.5"/>
<path d="M17 10L20 13.5L23 10M24 14V30" stroke="white" stroke-width="1.5" stroke-linecap="round"/>
<path d="M28 24C28 23.7348 27.8946 23.4804 27.7071 23.2929C27.5196 23.1054 27.2652 23 27 23C26.7348 23 26.4804 23.1054 26.2929 23.2929C26.1054 23.4804 26 23.7348 26 24C26 24.2652 26.1054 24.5196 26.2929 24.7071C26.4804 24.8946 26.7348 25 27 25C27.2652 25 27.5196 24.8946 27.7071 24.7071C27.8946 24.5196 28 24.2652 28 24ZM28 20C28 19.7348 27.8946 19.4804 27.7071 19.2929C27.5196 19.1054 27.2652 19 27 19C26.7348 19 26.4804 19.1054 26.2929 19.2929C26.1054 19.4804 26 19.7348 26 20C26 20.2652 26.1054 20.5196 26.2929 20.7071C26.4804 20.8946 26.7348 21 27 21C27.2652 21 27.5196 20.8946 27.7071 20.7071C27.8946 20.5196 28 20.2652 28 20Z" fill="white"/>
</svg>
