<svg width="24" height="24" viewBox="0 0 24 24" fill="none" xmlns="http://www.w3.org/2000/svg">
<path d="M22 7.54844C22 8.20844 21.46 8.74844 20.8 8.74844H3.2C2.54 8.74844 2 8.20844 2 7.54844V7.53844C2 5.24844 3.85 3.39844 6.14 3.39844H17.85C20.14 3.39844 22 5.25844 22 7.54844ZM2 11.4504V16.4604C2 18.7504 3.85 20.6004 6.14 20.6004H17.85C20.14 20.6004 22 18.7404 22 16.4504V11.4504C22 10.7904 21.46 10.2504 20.8 10.2504H3.2C2.54 10.2504 2 10.7904 2 11.4504ZM8 17.2504H6C5.59 17.2504 5.25 16.9104 5.25 16.5004C5.25 16.0904 5.59 15.7504 6 15.7504H8C8.41 15.7504 8.75 16.0904 8.75 16.5004C8.75 16.9104 8.41 17.2504 8 17.2504ZM14.5 17.2504H10.5C10.09 17.2504 9.75 16.9104 9.75 16.5004C9.75 16.0904 10.09 15.7504 10.5 15.7504H14.5C14.91 15.7504 15.25 16.0904 15.25 16.5004C15.25 16.9104 14.91 17.2504 14.5 17.2504Z" fill="#6912AA"/>
</svg>
