<svg width="56" height="56" viewBox="0 0 56 56" fill="none" xmlns="http://www.w3.org/2000/svg">
<circle cx="28" cy="28" r="28" fill="#E7D9F2"/>
<path d="M28.0002 11.3164C18.8013 11.3164 11.3169 18.8008 11.3169 27.9997C11.3169 37.1987 18.8013 44.6831 28.0002 44.6831C37.1992 44.6831 44.6836 37.1987 44.6836 27.9997C44.6836 18.8008 37.1992 11.3164 28.0002 11.3164ZM28.0002 13.8831C35.8119 13.8831 42.1169 20.1881 42.1169 27.9997C42.1169 31.4981 40.8464 34.6808 38.7481 37.1435L19.0554 17.0529C21.5794 14.9914 24.7413 13.8709 28.0002 13.8831ZM17.2523 18.856L36.9451 38.9466C34.421 41.0081 31.2591 42.1286 28.0002 42.1164C20.1886 42.1164 13.8836 35.8114 13.8836 27.9997C13.8836 24.5014 15.1541 21.3187 17.2523 18.856Z" fill="#1D052E"/>
</svg>
