<svg width="56" height="56" viewBox="0 0 56 56" fill="none" xmlns="http://www.w3.org/2000/svg">
<circle cx="28" cy="28" r="28" fill="#E7D9F2"/>
<g clip-path="url(#clip0_1642_8255)">
<path d="M18.5 25.625C19.1299 25.625 19.734 25.8752 20.1794 26.3206C20.6248 26.766 20.875 27.3701 20.875 28C20.875 28.6299 20.6248 29.234 20.1794 29.6794C19.734 30.1248 19.1299 30.375 18.5 30.375C17.8701 30.375 17.266 30.1248 16.8206 29.6794C16.3752 29.234 16.125 28.6299 16.125 28C16.125 27.3701 16.3752 26.766 16.8206 26.3206C17.266 25.8752 17.8701 25.625 18.5 25.625ZM28 25.625C28.6299 25.625 29.234 25.8752 29.6794 26.3206C30.1248 26.766 30.375 27.3701 30.375 28C30.375 28.6299 30.1248 29.234 29.6794 29.6794C29.234 30.1248 28.6299 30.375 28 30.375C27.3701 30.375 26.766 30.1248 26.3206 29.6794C25.8752 29.234 25.625 28.6299 25.625 28C25.625 27.3701 25.8752 26.766 26.3206 26.3206C26.766 25.8752 27.3701 25.625 28 25.625ZM37.5 25.625C38.1299 25.625 38.734 25.8752 39.1794 26.3206C39.6248 26.766 39.875 27.3701 39.875 28C39.875 28.6299 39.6248 29.234 39.1794 29.6794C38.734 30.1248 38.1299 30.375 37.5 30.375C36.8701 30.375 36.266 30.1248 35.8206 29.6794C35.3752 29.234 35.125 28.6299 35.125 28C35.125 27.3701 35.3752 26.766 35.8206 26.3206C36.266 25.8752 36.8701 25.625 37.5 25.625Z" fill="#1D052E"/>
</g>
<defs>
<clipPath id="clip0_1642_8255">
<rect width="38" height="38" fill="white" transform="translate(9 9)"/>
</clipPath>
</defs>
</svg>
