<svg width="36" height="36" viewBox="0 0 36 36" fill="none" xmlns="http://www.w3.org/2000/svg">
<rect width="36" height="36" rx="5.4" fill="#D6F5E2"/>
<path d="M10.8 15.2984H12.6V9.89844H14.4L17.478 15.2984H21.6V9.89844H23.4V15.2984H25.2V17.0984H23.4V18.8984H25.2V20.6984H23.4V26.0984H21.6L18.513 20.6984H14.4V26.0984H12.6V20.6984H10.8V18.8984H12.6V17.0984H10.8V15.2984ZM14.4 15.2984H15.417L14.4 13.5254V15.2984ZM14.4 17.0984V18.8984H17.478L16.452 17.0984H14.4ZM21.6 22.4984V20.6984H20.565L21.6 22.4984ZM18.504 17.0984L19.539 18.8984H21.6V17.0984H18.504Z" fill="#003314"/>
</svg>
