<svg width="36" height="36" viewBox="0 0 36 36" fill="none" xmlns="http://www.w3.org/2000/svg">
<rect width="36" height="36" rx="5.4" fill="#D6F5E2"/>
<path opacity="0.5" d="M20.9458 24.0538C19.7481 24.0539 18.5774 23.699 17.5815 23.0338C16.5856 22.3686 15.8094 21.423 15.3509 20.3166C14.8925 19.2102 14.7724 17.9928 15.0058 16.8181C15.2393 15.6435 15.8158 14.5645 16.6625 13.7175C17.5093 12.8706 18.5881 12.2937 19.7627 12.0599C20.9372 11.8261 22.1547 11.9458 23.2612 12.4039C24.3678 12.8621 25.3136 13.6381 25.9791 14.6337C26.6446 15.6294 26.9999 16.8001 27.0001 17.9977V17.9986C26.9984 19.6038 26.36 21.1429 25.225 22.2781C24.09 23.4133 22.551 24.0519 20.9458 24.0538Z" fill="#003314"/>
<path d="M15.0547 24.0538C13.8571 24.0538 12.6864 23.6986 11.6906 23.0333C10.6949 22.3679 9.91874 21.4222 9.46044 20.3158C9.00214 19.2093 8.88222 17.9918 9.11586 16.8173C9.3495 15.6427 9.92621 14.5637 10.773 13.7169C11.6199 12.8701 12.6988 12.2934 13.8734 12.0597C15.048 11.8261 16.2655 11.946 17.3719 12.4043C18.4784 12.8626 19.4241 13.6387 20.0894 14.6345C20.7548 15.6302 21.1099 16.801 21.1099 17.9986C21.1082 19.604 20.4698 21.1432 19.3345 22.2784C18.1993 23.4136 16.6601 24.0521 15.0547 24.0538Z" fill="black"/>
</svg>
