<svg width="36" height="36" viewBox="0 0 36 36" fill="none" xmlns="http://www.w3.org/2000/svg">
<rect width="36" height="36" rx="5.4" fill="#EFF2D9"/>
<path d="M27 13.9928C27 14.5868 26.514 15.0728 25.92 15.0728H10.08C9.486 15.0728 9 14.5868 9 13.9928V13.9838C9 11.9228 10.665 10.2578 12.726 10.2578H23.265C25.326 10.2578 27 11.9318 27 13.9928ZM9 17.5046V22.0136C9 24.0746 10.665 25.7396 12.726 25.7396H23.265C25.326 25.7396 27 24.0656 27 22.0046V17.5046C27 16.9106 26.514 16.4246 25.92 16.4246H10.08C9.486 16.4246 9 16.9106 9 17.5046ZM14.4 22.7246H12.6C12.231 22.7246 11.925 22.4186 11.925 22.0496C11.925 21.6806 12.231 21.3746 12.6 21.3746H14.4C14.769 21.3746 15.075 21.6806 15.075 22.0496C15.075 22.4186 14.769 22.7246 14.4 22.7246ZM20.25 22.7246H16.65C16.281 22.7246 15.975 22.4186 15.975 22.0496C15.975 21.6806 16.281 21.3746 16.65 21.3746H20.25C20.619 21.3746 20.925 21.6806 20.925 22.0496C20.925 22.4186 20.619 22.7246 20.25 22.7246Z" fill="#2A2E05"/>
</svg>
