<svg width="36" height="36" viewBox="0 0 36 36" fill="none" xmlns="http://www.w3.org/2000/svg">
<rect width="36" height="36" rx="5.4" fill="#E7D9F2"/>
<g clip-path="url(#clip0_1774_8643)">
<path d="M27.1991 21.3891L26.9975 20.3766H24.7349L24.3749 21.3819L22.5614 21.3855C23.7269 18.5838 24.5927 16.5093 25.157 15.1602C25.3046 14.8074 25.5665 14.6274 25.9526 14.6301C26.2478 14.6328 26.7293 14.6328 27.398 14.631L28.8002 21.3864L27.1991 21.3891ZM25.2443 18.9897H26.7023L26.1578 16.4517L25.2443 18.9897ZM13.5542 14.6292L15.3776 14.631L12.5588 21.39L10.7129 21.3882C10.2487 19.6028 9.79032 17.816 9.3377 16.0278C9.2477 15.6714 9.0695 15.4221 8.7266 15.3042C8.2202 15.1344 7.71134 14.9721 7.2002 14.8173L7.2002 14.631H10.1135C10.6175 14.631 10.9118 14.8749 11.0063 15.3753C11.1017 15.8766 11.3411 17.1537 11.7263 19.2039L13.5542 14.6292ZM17.8832 14.631L16.4423 21.3891L14.7062 21.3864L16.1462 14.6292L17.8832 14.631ZM21.4022 14.5059C21.9215 14.5059 22.5758 14.6679 22.952 14.8173L22.6478 16.2177C22.3076 16.0809 21.7478 15.8964 21.2771 15.9027C20.5931 15.9144 20.1701 16.2015 20.1701 16.4769C20.1701 16.9251 20.9045 17.151 21.6605 17.6406C22.5227 18.1986 22.637 18.6999 22.6262 19.2453C22.6145 20.3748 21.6605 21.4899 19.6481 21.4899C18.7301 21.4764 18.3989 21.3999 17.6501 21.1335L17.9669 19.6719C18.7292 19.9905 19.0523 20.0922 19.7039 20.0922C20.3006 20.0922 20.8127 19.851 20.8172 19.4307C20.8208 19.1319 20.6372 18.9834 19.9676 18.6144C19.298 18.2445 18.3584 17.7333 18.371 16.7046C18.3863 15.3888 19.6328 14.5059 21.4022 14.5059Z" fill="#1D052E"/>
</g>
<defs>
<clipPath id="clip0_1774_8643">
<rect width="21.6" height="21.6" fill="white" transform="translate(7.2002 7.19922)"/>
</clipPath>
</defs>
</svg>
