<svg width="36" height="36" viewBox="0 0 36 36" fill="none" xmlns="http://www.w3.org/2000/svg">
<rect width="36" height="36" rx="5.4" fill="#E7D9F2"/>
<path d="M21.5991 14.85H23.3991C23.3991 12.2967 20.9196 11.1321 18.8991 10.8639V9H17.0991V10.8639C15.0786 11.1321 12.5991 12.2967 12.5991 14.85C12.5991 17.2854 14.9985 18.5517 17.0991 18.837V23.31C15.7959 23.0841 14.3991 22.3884 14.3991 21.15H12.5991C12.5991 23.4801 14.7816 24.8571 17.0991 25.1424V27H18.8991V25.137C20.9196 24.8688 23.3991 23.7033 23.3991 21.15C23.3991 18.5967 20.9196 17.4321 18.8991 17.1639V12.69C20.0961 12.9051 21.5991 13.5369 21.5991 14.85ZM14.3991 14.85C14.3991 13.5369 15.9021 12.9051 17.0991 12.69V17.0091C15.8652 16.7814 14.3991 16.1073 14.3991 14.85ZM21.5991 21.15C21.5991 22.4631 20.0961 23.0949 18.8991 23.31V18.99C20.0961 19.2051 21.5991 19.8369 21.5991 21.15Z" fill="#1D052E"/>
</svg>
