<svg width="50" height="50" viewBox="0 0 50 50" fill="none" xmlns="http://www.w3.org/2000/svg">
<rect width="50" height="50" rx="15" fill="#1C052E"/>
<path d="M35 30.002C34.9996 31.3696 34.5321 32.696 33.675 33.7616C32.8179 34.8273 31.6226 35.5683 30.287 35.862L29.649 33.948C30.2332 33.8518 30.7888 33.6271 31.2758 33.2903C31.7627 32.9534 32.1689 32.5128 32.465 32H30C29.4696 32 28.9609 31.7893 28.5858 31.4142C28.2107 31.0391 28 30.5304 28 30V26C28 25.4696 28.2107 24.9609 28.5858 24.5858C28.9609 24.2107 29.4696 24 30 24H32.938C32.694 22.0669 31.7529 20.2893 30.2914 19.0007C28.8299 17.7121 26.9484 17.0011 25 17.0011C23.0516 17.0011 21.1701 17.7121 19.7086 19.0007C18.2471 20.2893 17.306 22.0669 17.062 24H20C20.5304 24 21.0391 24.2107 21.4142 24.5858C21.7893 24.9609 22 25.4696 22 26V30C22 30.5304 21.7893 31.0391 21.4142 31.4142C21.0391 31.7893 20.5304 32 20 32H17C16.4696 32 15.9609 31.7893 15.5858 31.4142C15.2107 31.0391 15 30.5304 15 30V25C15 19.477 19.477 15 25 15C30.523 15 35 19.477 35 25V30.002Z" fill="#F2F2F2"/>
</svg>
