<svg width="20" height="20" viewBox="0 0 20 20" fill="none" xmlns="http://www.w3.org/2000/svg">
<rect width="20" height="20" rx="4.44444" fill="#E7D9F2"/>
<path d="M12.2219 10.5015V12.8349C12.2219 14.7793 11.4441 15.5571 9.49965 15.5571H7.16631C5.22187 15.5571 4.44409 14.7793 4.44409 12.8349V10.5015C4.44409 8.55707 5.22187 7.7793 7.16631 7.7793H9.49965C11.4441 7.7793 12.2219 8.55707 12.2219 10.5015Z" fill="#1D052E"/>
<path d="M12.833 4.44531H10.4996C8.78686 4.44531 7.98297 5.05309 7.81631 6.52253C7.78075 6.82976 8.03575 7.0842 8.3452 7.0842H9.49964C11.833 7.0842 12.9163 8.16753 12.9163 10.5009V11.6553C12.9163 11.9648 13.1702 12.2192 13.4774 12.1842C14.948 12.0175 15.5552 11.2136 15.5552 9.50087V7.16753C15.5552 5.22309 14.7774 4.44531 12.833 4.44531Z" fill="#1D052E"/>
</svg>
