<svg width="40" height="40" viewBox="0 0 40 40" fill="none" xmlns="http://www.w3.org/2000/svg">
<rect width="40" height="40" rx="8" fill="#003314"/>
<g clip-path="url(#clip0_2112_15059)">
<path fill-rule="evenodd" clip-rule="evenodd" d="M20.0008 24.8004C20.6373 24.8004 21.2478 25.0532 21.6978 25.5033C22.1479 25.9534 22.4008 26.5639 22.4008 27.2004C22.4008 27.8369 22.1479 28.4474 21.6978 28.8974C21.2478 29.3475 20.6373 29.6004 20.0008 29.6004C19.3643 29.6004 18.7538 29.3475 18.3037 28.8974C17.8536 28.4474 17.6008 27.8369 17.6008 27.2004C17.6008 26.5639 17.8536 25.9534 18.3037 25.5033C18.7538 25.0532 19.3643 24.8004 20.0008 24.8004ZM20.0008 20.1768C21.1482 20.1763 22.2774 20.4646 23.284 21.0154C24.2907 21.5661 25.1424 22.3614 25.7608 23.328C25.8758 23.5154 25.9128 23.7404 25.8638 23.9547C25.8148 24.1691 25.6837 24.3557 25.4986 24.4744C25.3136 24.5932 25.0893 24.6347 24.8741 24.5899C24.6588 24.5452 24.4696 24.4178 24.3472 24.2352C23.8808 23.5055 23.2382 22.9051 22.4785 22.4895C21.7189 22.0738 20.8667 21.8562 20.0008 21.8568C19.1341 21.8562 18.2812 22.0741 17.5211 22.4905C16.761 22.9068 16.1181 23.5081 15.652 24.2388C15.5318 24.4264 15.3421 24.5586 15.1245 24.6063C14.9069 24.654 14.6792 24.6133 14.4916 24.4932C14.304 24.373 14.1718 24.1833 14.1241 23.9657C14.0763 23.7481 14.117 23.5204 14.2372 23.3328C14.8553 22.3648 15.7074 21.5682 16.7148 21.0166C17.7221 20.465 18.8523 20.1762 20.0008 20.1768ZM20.0008 15.444C23.6728 15.444 27.0364 17.1012 29.212 19.9128C29.3465 20.0891 29.4058 20.3114 29.377 20.5313C29.3482 20.7511 29.2336 20.9507 29.0583 21.0864C28.883 21.2222 28.6611 21.2831 28.441 21.2559C28.221 21.2286 28.0206 21.1155 27.8836 20.9412C26.0236 18.54 23.1508 17.124 19.9996 17.124C18.4876 17.1223 16.9951 17.4655 15.6357 18.1276C14.2764 18.7897 13.086 19.7532 12.1552 20.9448C12.0881 21.0342 12.0038 21.1093 11.9074 21.1657C11.8109 21.2221 11.7041 21.2587 11.5933 21.2733C11.4825 21.288 11.3699 21.2804 11.2621 21.2509C11.1543 21.2215 11.0534 21.1708 10.9654 21.1019C10.8774 21.033 10.8041 20.9472 10.7497 20.8496C10.6952 20.752 10.6608 20.6445 10.6485 20.5334C10.6361 20.4223 10.6461 20.3099 10.6777 20.2027C10.7094 20.0955 10.7621 19.9957 10.8328 19.9092C11.9208 18.5167 13.312 17.3908 14.9007 16.617C16.4894 15.8432 18.2337 15.4421 20.0008 15.444ZM20.0008 10.4004C24.6868 10.4004 28.6924 12.2004 31.7836 15.5844C31.934 15.7489 32.0128 15.9665 32.0028 16.1891C31.9928 16.4118 31.8947 16.6214 31.7302 16.7718C31.5656 16.9222 31.3481 17.001 31.1254 16.991C30.9027 16.981 30.6932 16.8829 30.5428 16.7184C27.7672 13.6788 24.2116 12.0804 20.0008 12.0804C15.8944 12.0804 12.2572 13.7268 9.45278 16.7244C9.37981 16.8128 9.28949 16.8854 9.18741 16.9376C9.08532 16.9899 8.97362 17.0206 8.85919 17.0281C8.74476 17.0355 8.63002 17.0194 8.52205 16.9808C8.41407 16.9422 8.31514 16.8819 8.23135 16.8036C8.14757 16.7253 8.0807 16.6307 8.03486 16.5256C7.98903 16.4205 7.9652 16.3071 7.96485 16.1924C7.96449 16.0777 7.98762 15.9642 8.03281 15.8588C8.078 15.7534 8.14428 15.6584 8.22758 15.5796C11.3416 12.246 15.4204 10.4004 19.9996 10.4004H20.0008Z" fill="white"/>
</g>
<defs>
<clipPath id="clip0_2112_15059">
<rect width="24" height="24" fill="white" transform="translate(8 8)"/>
</clipPath>
</defs>
</svg>
