<svg width="16" height="16" viewBox="0 0 16 16" fill="none" xmlns="http://www.w3.org/2000/svg">
<circle cx="8" cy="8" r="8" fill="#E7D9F2"/>
<path d="M9.66667 6.54232H10.5C10.5 5.36023 9.35208 4.82107 8.41667 4.6969V3.83398H7.58333V4.6969C6.64792 4.82107 5.5 5.36023 5.5 6.54232C5.5 7.66982 6.61083 8.25607 7.58333 8.38815V10.459C6.98 10.3544 6.33333 10.0323 6.33333 9.45898H5.5C5.5 10.5377 6.51042 11.1752 7.58333 11.3073V12.1673H8.41667V11.3048C9.35208 11.1806 10.5 10.6411 10.5 9.45898C10.5 8.2769 9.35208 7.73773 8.41667 7.61357V5.54232C8.97083 5.6419 9.66667 5.9344 9.66667 6.54232ZM6.33333 6.54232C6.33333 5.9344 7.02917 5.6419 7.58333 5.54232V7.5419C7.01208 7.43648 6.33333 7.1244 6.33333 6.54232ZM9.66667 9.45898C9.66667 10.0669 8.97083 10.3594 8.41667 10.459V8.45898C8.97083 8.55857 9.66667 8.85107 9.66667 9.45898Z" fill="#1D052E"/>
</svg>
