<svg width="16" height="16" viewBox="0 0 16 16" fill="none" xmlns="http://www.w3.org/2000/svg">
<circle cx="8" cy="8" r="8" fill="#E7D9F2"/>
<path d="M10.4987 7.16536H5.4987C5.38819 7.16536 5.28221 7.12147 5.20407 7.04333C5.12593 6.96519 5.08203 6.8592 5.08203 6.7487C5.08203 6.63819 5.12593 6.53221 5.20407 6.45407C5.28221 6.37593 5.38819 6.33203 5.4987 6.33203H10.4987C10.6092 6.33203 10.7152 6.37593 10.7933 6.45407C10.8715 6.53221 10.9154 6.63819 10.9154 6.7487C10.9154 6.8592 10.8715 6.96519 10.7933 7.04333C10.7152 7.12147 10.6092 7.16536 10.4987 7.16536ZM10.4987 9.66536H5.4987C5.38819 9.66536 5.28221 9.62147 5.20407 9.54333C5.12593 9.46519 5.08203 9.3592 5.08203 9.2487C5.08203 9.13819 5.12593 9.03221 5.20407 8.95407C5.28221 8.87593 5.38819 8.83203 5.4987 8.83203H10.4987C10.6092 8.83203 10.7152 8.87593 10.7933 8.95407C10.8715 9.03221 10.9154 9.13819 10.9154 9.2487C10.9154 9.3592 10.8715 9.46519 10.7933 9.54333C10.7152 9.62147 10.6092 9.66536 10.4987 9.66536Z" fill="#1D052E"/>
</svg>
