<svg width="40" height="40" viewBox="0 0 40 40" fill="none" xmlns="http://www.w3.org/2000/svg">
<rect width="40" height="40" rx="8" fill="#22111F"/>
<g clip-path="url(#clip0_2112_15069)">
<path d="M23.2 28V28.8C23.4122 28.8 23.6157 28.7157 23.7657 28.5657C23.9157 28.4157 24 28.2122 24 28H23.2ZM16.8 28H16C16 28.2122 16.0843 28.4157 16.2343 28.5657C16.3843 28.7157 16.5878 28.8 16.8 28.8V28ZM17.6 32H22.4V30.4H17.6V32ZM13.728 18.24L13.712 18.352L15.296 18.576L15.3136 18.464L13.728 18.24ZM20 12.8C18.4748 12.7997 17.0007 13.3498 15.8485 14.3492C14.6963 15.3485 13.9434 16.7301 13.728 18.24L15.3136 18.464C15.475 17.3358 16.0364 16.3036 16.8975 15.5571C17.7587 14.8105 18.8603 14.3997 20 14.4V12.8ZM26.272 18.24C26.0566 16.7301 25.3037 15.3485 24.1515 14.3492C22.9993 13.3498 21.5252 12.7997 20 12.8V14.4C21.1396 14.4 22.241 14.811 23.1021 15.5575C23.9632 16.3039 24.5263 17.3359 24.688 18.464L26.272 18.24ZM26.288 18.352L26.272 18.24L24.688 18.464L24.7024 18.576L26.288 18.352ZM25.024 23.1344C26.032 21.832 26.5408 20.136 26.288 18.352L24.704 18.5776C24.7956 19.2068 24.7593 19.848 24.597 20.4627C24.4348 21.0775 24.1501 21.6532 23.76 22.1552L25.024 23.1344ZM22.4 25.44V28H24V25.4416H22.4V25.44ZM23.2 27.2H16.8V28.8H23.2V27.2ZM17.6 28V25.4416H16V28H17.6ZM13.712 18.352C13.5904 19.1932 13.6396 20.0503 13.8568 20.872C14.074 21.6937 14.4546 22.4632 14.976 23.1344L16.2416 22.1552C15.8515 21.6532 15.5652 21.0775 15.403 20.4627C15.2407 19.848 15.2044 19.2052 15.296 18.576L13.712 18.352ZM17.6 25.44C17.6 24.1232 16.8992 23.0032 16.24 22.1536L14.976 23.1344C15.5888 23.9264 16 24.6816 16 25.44H17.6ZM23.76 22.1536C23.0992 23.0048 22.4 24.1232 22.4 25.44H24C24 24.6816 24.4112 23.9264 25.024 23.1344L23.76 22.1536ZM19.2 8V11.2H20.8V8H19.2ZM8 20.8H11.2V19.2H8V20.8ZM28.8 20.8H32V19.2H28.8V20.8ZM13.3664 13.8336L10.9664 11.4336L9.8336 12.5664L12.2336 14.9664L13.3664 13.8336ZM27.7664 14.9664L30.1664 12.5664L29.0336 11.4336L26.6336 13.8336L27.7664 14.9664Z" fill="white"/>
</g>
<defs>
<clipPath id="clip0_2112_15069">
<rect width="24" height="24" fill="white" transform="translate(8 8)"/>
</clipPath>
</defs>
</svg>
