<svg width="16" height="16" viewBox="0 0 16 16" fill="none" xmlns="http://www.w3.org/2000/svg">
<circle cx="8" cy="8" r="8" fill="#E7D9F2"/>
<path d="M9.1888 4.64518V6.22852H8.5638V4.64518C8.5638 4.53268 8.4638 4.47852 8.39714 4.47852C8.3763 4.47852 8.35547 4.48268 8.33464 4.49102L5.03047 5.73685C4.80964 5.82018 4.66797 6.02852 4.66797 6.26602V6.54518C4.2888 6.82852 4.04297 7.28268 4.04297 7.79518V6.26602C4.04297 5.77018 4.34714 5.32852 4.80964 5.15352L8.11797 3.90352C8.20964 3.87018 8.30547 3.85352 8.39714 3.85352C8.8138 3.85352 9.1888 4.19102 9.1888 4.64518ZM11.9596 9.04102V9.45768C11.9596 9.51222 11.9383 9.56459 11.9001 9.60354C11.8619 9.6425 11.81 9.66493 11.7555 9.66602H11.1471C10.9263 9.66602 10.7263 9.50352 10.7096 9.28685C10.6971 9.15768 10.7471 9.03685 10.8305 8.95352C10.8682 8.91444 10.9136 8.88355 10.9637 8.86276C11.0139 8.84197 11.0678 8.83174 11.1221 8.83268H11.7513C11.8721 8.83685 11.9596 8.92852 11.9596 9.04102Z" fill="#1D052E"/>
<path d="M11.118 8.39518H11.543C11.7721 8.39518 11.9596 8.20768 11.9596 7.97852V7.79518C11.9596 6.93268 11.2555 6.22852 10.393 6.22852H5.60964C5.25547 6.22852 4.93047 6.34518 4.66797 6.54518C4.2888 6.82852 4.04297 7.28268 4.04297 7.79518V10.5993C4.04297 11.4618 4.74714 12.166 5.60964 12.166H10.393C11.2555 12.166 11.9596 11.4618 11.9596 10.5993V10.5202C11.9596 10.291 11.7721 10.1035 11.543 10.1035H11.1805C10.7805 10.1035 10.3971 9.85768 10.293 9.47018C10.2055 9.15352 10.3096 8.84935 10.518 8.64518C10.6721 8.48685 10.8846 8.39518 11.118 8.39518ZM8.83464 8.31185H5.91797C5.74714 8.31185 5.60547 8.17018 5.60547 7.99935C5.60547 7.82852 5.74714 7.68685 5.91797 7.68685H8.83464C9.00547 7.68685 9.14714 7.82852 9.14714 7.99935C9.14714 8.17018 9.00547 8.31185 8.83464 8.31185Z" fill="#1D052E"/>
</svg>
