<svg width="21" height="21" viewBox="0 0 21 21" fill="none" xmlns="http://www.w3.org/2000/svg">
<path d="M9.90721 9.88768L9.94828 9.86764C10.0767 9.80346 10.2209 9.77745 10.3637 9.79266C10.5065 9.80788 10.6419 9.8637 10.7539 9.9535C10.866 10.0433 10.95 10.1633 10.9959 10.2994C11.0418 10.4354 11.0478 10.5818 11.0132 10.7212L10.3039 13.5622C10.269 13.7016 10.2748 13.8481 10.3206 13.9843C10.3665 14.1205 10.4504 14.2408 10.5625 14.3307C10.6746 14.4207 10.8101 14.4766 10.9531 14.4918C11.096 14.507 11.2402 14.481 11.3688 14.4167L11.4099 14.3957M19.6745 10.639C19.6745 11.823 19.4413 12.9954 18.9882 14.0893C18.5351 15.1831 17.871 16.177 17.0338 17.0142C16.1966 17.8515 15.2027 18.5156 14.1088 18.9687C13.0149 19.4218 11.8425 19.655 10.6585 19.655C9.47454 19.655 8.30214 19.4218 7.20828 18.9687C6.11441 18.5156 5.1205 17.8515 4.28329 17.0142C3.44608 16.177 2.78197 15.1831 2.32888 14.0893C1.87578 12.9954 1.64258 11.823 1.64258 10.639C1.64258 8.24782 2.59247 5.95458 4.28329 4.26376C5.97411 2.57294 8.26736 1.62305 10.6585 1.62305C13.0497 1.62305 15.343 2.57294 17.0338 4.26376C18.7246 5.95458 19.6745 8.24782 19.6745 10.639ZM10.6585 6.88236H10.6666V6.89037H10.6585V6.88236Z" stroke="#34C759" stroke-width="1.44255" stroke-linecap="round" stroke-linejoin="round"/>
</svg>
