<svg width="76" height="46" viewBox="0 0 76 46" fill="none" xmlns="http://www.w3.org/2000/svg">
<path d="M48.401 41.0219H28.1477V5.34961H48.4014L48.401 41.0219Z" fill="#FF5F00"/>
<path d="M29.4316 23.1868C29.4316 15.9507 32.8887 9.5047 38.272 5.35065C34.1971 2.2016 29.1571 0.49251 23.9678 0.500025C11.1847 0.500025 0.82251 10.6571 0.82251 23.1868C0.82251 35.7165 11.1847 45.8735 23.9678 45.8735C29.1572 45.8811 34.1974 44.172 38.2724 41.0229C32.8895 36.8696 29.4316 30.4233 29.4316 23.1868Z" fill="#EB001B"/>
<path d="M75.7247 23.1868C75.7247 35.7165 65.3625 45.8735 52.5794 45.8735C47.3894 45.881 42.3487 44.1719 38.2729 41.0229C43.6578 36.8689 47.1148 30.4233 47.1148 23.1868C47.1148 15.9503 43.6578 9.5047 38.2729 5.35065C42.3486 2.2017 47.3892 0.492642 52.579 0.500024C65.3621 0.500024 75.7243 10.6571 75.7243 23.1868" fill="#F79E1B"/>
</svg>
