<svg width="170" height="166" viewBox="0 0 170 166" fill="none" xmlns="http://www.w3.org/2000/svg">
<g clip-path="url(#clip0_2438_18166)">
<path d="M107.921 37.3341H62.113C61.0691 37.3354 60.0683 37.7507 59.3302 38.4891C58.5921 39.2275 58.1768 40.2286 58.1756 41.2729V143.117L57.6506 143.277L46.4132 146.72C45.8807 146.882 45.3054 146.826 44.8138 146.565C44.3222 146.304 43.9543 145.858 43.791 145.325L10.3651 36.1026C10.2024 35.5698 10.2578 34.9942 10.5192 34.5023C10.7806 34.0104 11.2265 33.6425 11.7589 33.4793L29.0756 28.1751L79.2774 12.8033L96.594 7.49906C96.8575 7.41793 97.1345 7.38958 97.409 7.41563C97.6835 7.44168 97.9501 7.52163 98.1937 7.6509C98.4373 7.78016 98.653 7.95621 98.8285 8.16896C99.004 8.38171 99.1358 8.627 99.2164 8.89077L107.76 36.8089L107.921 37.3341Z" fill="#F2F2F2"/>
<path d="M117.917 36.8055L107.62 3.15778C107.448 2.59714 107.168 2.07577 106.795 1.62346C106.423 1.17115 105.964 0.796766 105.447 0.521697C104.929 0.246627 104.363 0.076262 103.779 0.0203447C103.196 -0.0355727 102.607 0.0240528 102.047 0.195808L77.7007 7.65062L27.5016 23.025L3.15533 30.4825C2.02434 30.8299 1.07734 31.612 0.522199 32.6572C-0.0329367 33.7023 -0.150855 34.9251 0.194331 36.0572L35.3894 151.051C35.6698 151.965 36.2356 152.765 37.0038 153.334C37.772 153.902 38.7021 154.209 39.6576 154.21C40.0999 154.211 40.5396 154.144 40.9621 154.013L57.6515 148.904L58.1765 148.741V148.192L57.6515 148.352L40.8073 153.512C39.809 153.816 38.7307 153.712 37.8091 153.222C36.8874 152.733 36.1975 151.897 35.8908 150.899L0.698426 35.9023C0.546466 35.4078 0.493504 34.8882 0.542571 34.3732C0.591637 33.8582 0.741765 33.358 0.984366 32.9011C1.22697 32.4443 1.55728 32.0398 1.95637 31.7108C2.35546 31.3819 2.81551 31.1349 3.31015 30.984L27.6564 23.5266L77.8556 8.15479L102.202 0.697352C102.577 0.582812 102.967 0.52441 103.359 0.524045C104.201 0.525935 105.02 0.797438 105.697 1.29878C106.373 1.80013 106.871 2.50498 107.118 3.31008L117.369 36.8056L117.531 37.3307H118.077L117.917 36.8055Z" fill="#3F3D56"/>
<path d="M32.202 33.5661C31.6961 33.5657 31.2036 33.4032 30.7968 33.1023C30.39 32.8014 30.0902 32.3781 29.9416 31.8943L26.5606 20.8468C26.4697 20.5501 26.4382 20.2383 26.4678 19.9294C26.4974 19.6205 26.5876 19.3204 26.7331 19.0463C26.8787 18.7722 27.0768 18.5295 27.3161 18.332C27.5554 18.1345 27.8313 17.9861 28.128 17.8953L74.3107 3.75144C74.9099 3.56855 75.557 3.63093 76.1102 3.92487C76.6634 4.2188 77.0774 4.72029 77.2614 5.31926L80.6424 16.3668C80.8251 16.9662 80.7627 17.6135 80.4688 18.1669C80.175 18.7202 79.6738 19.1344 79.0751 19.3185L32.8922 33.4624C32.6686 33.531 32.4359 33.566 32.202 33.5661Z" fill="#6912AA"/>
<path d="M49.9139 11.8042C52.8133 11.8042 55.1638 9.45295 55.1638 6.5525C55.1638 3.65206 52.8133 1.30078 49.9139 1.30078C47.0145 1.30078 44.6641 3.65206 44.6641 6.5525C44.6641 9.45295 47.0145 11.8042 49.9139 11.8042Z" fill="#6912AA"/>
<path d="M49.9142 9.87767C51.7502 9.87767 53.2386 8.38877 53.2386 6.55212C53.2386 4.71546 51.7502 3.22656 49.9142 3.22656C48.0782 3.22656 46.5898 4.71546 46.5898 6.55212C46.5898 8.38877 48.0782 9.87767 49.9142 9.87767Z" fill="white"/>
<path d="M158.188 152.87H69.4656C68.874 152.869 68.3069 152.634 67.8886 152.215C67.4703 151.797 67.2351 151.23 67.2344 150.638V44.2906C67.235 43.6988 67.4703 43.1315 67.8886 42.7131C68.3069 42.2946 68.874 42.0593 69.4656 42.0586H158.188C158.78 42.0593 159.347 42.2946 159.765 42.7131C160.183 43.1315 160.419 43.6988 160.419 44.2906V150.638C160.419 151.23 160.183 151.797 159.765 152.215C159.347 152.634 158.78 152.869 158.188 152.87Z" fill="#F2F2F2"/>
<path d="M117.37 36.8086H62.1147C60.9317 36.8103 59.7977 37.2811 58.9612 38.1179C58.1247 38.9547 57.654 40.0892 57.6523 41.2726V148.355L58.1773 148.195V41.2726C58.1786 40.2283 58.5938 39.2272 59.332 38.4888C60.0701 37.7504 61.0709 37.335 62.1147 37.3338H117.532L117.37 36.8086ZM165.537 36.8086H62.1147C60.9317 36.8103 59.7977 37.2811 58.9612 38.1179C58.1247 38.9547 57.654 40.0892 57.6523 41.2726V161.537C57.654 162.72 58.1247 163.855 58.9612 164.692C59.7977 165.528 60.9317 165.999 62.1147 166.001H165.537C166.72 165.999 167.854 165.528 168.691 164.692C169.527 163.855 169.998 162.72 169.999 161.537V41.2726C169.998 40.0892 169.527 38.9547 168.691 38.1179C167.854 37.2811 166.72 36.8103 165.537 36.8086ZM169.474 161.537C169.473 162.581 169.058 163.582 168.32 164.321C167.582 165.059 166.581 165.474 165.537 165.476H62.1147C61.0709 165.474 60.0701 165.059 59.332 164.321C58.5938 163.582 58.1786 162.581 58.1773 161.537V41.2726C58.1786 40.2283 58.5938 39.2272 59.332 38.4888C60.0701 37.7504 61.0709 37.335 62.1147 37.3338H165.537C166.581 37.335 167.582 37.7504 168.32 38.4888C169.058 39.2272 169.473 40.2283 169.474 41.2726V161.537Z" fill="#3F3D56"/>
<path d="M137.974 48.3624H89.6749C89.0486 48.3617 88.4481 48.1124 88.0052 47.6694C87.5623 47.2263 87.3132 46.6257 87.3125 45.9991V34.4453C87.3132 33.8187 87.5623 33.218 88.0052 32.775C88.4481 32.332 89.0486 32.0827 89.6749 32.082H137.974C138.6 32.0827 139.2 32.332 139.643 32.775C140.086 33.218 140.335 33.8187 140.336 34.4453V45.9991C140.335 46.6257 140.086 47.2263 139.643 47.6694C139.2 48.1124 138.6 48.3617 137.974 48.3624Z" fill="#6912AA"/>
<path d="M113.828 32.8706C116.727 32.8706 119.078 30.5194 119.078 27.6189C119.078 24.7185 116.727 22.3672 113.828 22.3672C110.929 22.3672 108.578 24.7185 108.578 27.6189C108.578 30.5194 110.929 32.8706 113.828 32.8706Z" fill="#6912AA"/>
<path d="M113.827 30.8155C115.593 30.8155 117.024 29.3834 117.024 27.6168C117.024 25.8501 115.593 24.418 113.827 24.418C112.061 24.418 110.629 25.8501 110.629 27.6168C110.629 29.3834 112.061 30.8155 113.827 30.8155Z" fill="white"/>
</g>
<defs>
<clipPath id="clip0_2438_18166">
<rect width="170" height="166" fill="white"/>
</clipPath>
</defs>
</svg>
