<svg width="40" height="40" viewBox="0 0 40 40" fill="none" xmlns="http://www.w3.org/2000/svg">
<rect width="40" height="40" rx="8" fill="#032E2C"/>
<g clip-path="url(#clip0_2112_15109)">
<path d="M13.6008 28.0008H10.4008C9.97643 28.0008 9.56947 27.8322 9.26941 27.5322C8.96935 27.2321 8.80078 26.8251 8.80078 26.4008V20.0008C8.80078 19.5764 8.96935 19.1695 9.26941 18.8694C9.56947 18.5694 9.97643 18.4008 10.4008 18.4008H29.6008C30.0251 18.4008 30.4321 18.5694 30.7322 18.8694C31.0322 19.1695 31.2008 19.5764 31.2008 20.0008V26.4008C31.2008 26.8251 31.0322 27.2321 30.7322 27.5322C30.4321 27.8322 30.0251 28.0008 29.6008 28.0008H26.4008M13.6008 18.4008V10.4008C13.6008 9.97643 13.7694 9.56947 14.0694 9.26941C14.3695 8.96935 14.7764 8.80078 15.2008 8.80078H24.8008C25.2251 8.80078 25.6321 8.96935 25.9322 9.26941C26.2322 9.56947 26.4008 9.97643 26.4008 10.4008V18.4008M13.6008 24.8008H26.4008V31.2008H13.6008V24.8008Z" stroke="white" stroke-width="1.6"/>
</g>
<defs>
<clipPath id="clip0_2112_15109">
<rect width="24" height="24" fill="white" transform="translate(8 8)"/>
</clipPath>
</defs>
</svg>
