<svg width="228" height="200" viewBox="0 0 228 200" fill="none" xmlns="http://www.w3.org/2000/svg">
<g clip-path="url(#clip0_2422_17496)">
<path d="M124.356 192.682C124.173 192.69 123.992 192.642 123.838 192.544C123.683 192.447 123.563 192.304 123.492 192.135C123.421 191.966 123.404 191.78 123.443 191.601C123.482 191.423 123.575 191.26 123.709 191.136L123.771 190.893C123.762 190.874 123.754 190.854 123.746 190.835C123.562 190.4 123.254 190.029 122.86 189.769C122.466 189.509 122.004 189.372 121.532 189.373C121.06 189.375 120.599 189.516 120.207 189.779C119.815 190.042 119.509 190.415 119.328 190.851C118.606 192.591 117.686 194.335 117.459 196.175C117.359 196.988 117.401 197.813 117.583 198.612C115.886 194.91 115.005 190.886 114.999 186.813C114.999 185.791 115.056 184.77 115.169 183.754C115.263 182.922 115.394 182.095 115.56 181.274C116.47 176.821 118.423 172.647 121.259 169.095C122.632 168.346 123.742 167.194 124.44 165.795C124.693 165.292 124.871 164.755 124.97 164.2C124.816 164.221 124.387 161.862 124.503 161.718C124.288 161.39 123.901 161.228 123.666 160.908C122.493 159.319 120.879 159.596 120.036 161.756C118.235 162.665 118.217 164.172 119.322 165.622C120.025 166.544 120.122 167.792 120.739 168.78C120.675 168.861 120.609 168.94 120.546 169.021C119.386 170.513 118.375 172.115 117.527 173.803C117.733 171.911 117.487 169.997 116.809 168.219C116.122 166.561 114.834 165.165 113.7 163.732C112.338 162.011 109.545 162.762 109.305 164.944C109.302 164.965 109.3 164.987 109.298 165.008C109.466 165.103 109.631 165.204 109.793 165.31C109.995 165.446 110.152 165.639 110.243 165.865C110.334 166.092 110.354 166.34 110.302 166.578C110.249 166.816 110.125 167.032 109.948 167.199C109.77 167.366 109.546 167.475 109.305 167.512L109.28 167.516C109.34 168.123 109.446 168.724 109.597 169.315C108.143 174.942 111.284 176.991 115.768 177.083C115.867 177.134 115.964 177.185 116.063 177.233C115.211 179.646 114.677 182.16 114.474 184.711C114.359 186.216 114.365 187.728 114.494 189.232L114.486 189.179C114.162 187.507 113.269 185.997 111.961 184.907C110.017 183.31 107.271 182.722 105.174 181.439C104.951 181.295 104.692 181.219 104.427 181.218C104.162 181.218 103.903 181.293 103.679 181.435C103.456 181.577 103.277 181.78 103.165 182.02C103.053 182.26 103.012 182.527 103.047 182.789C103.05 182.808 103.053 182.827 103.056 182.845C103.368 182.973 103.673 183.119 103.967 183.285C104.136 183.38 104.3 183.48 104.462 183.587C104.664 183.723 104.821 183.916 104.912 184.142C105.003 184.368 105.024 184.617 104.971 184.855C104.918 185.093 104.795 185.309 104.617 185.476C104.439 185.643 104.215 185.752 103.974 185.789L103.949 185.793C103.932 185.795 103.916 185.798 103.899 185.8C104.433 187.075 105.182 188.249 106.115 189.27C107.024 194.182 110.931 194.648 115.111 193.218H115.113C115.572 195.21 116.236 197.15 117.096 199.005H124.178C124.204 198.927 124.227 198.845 124.249 198.767C123.594 198.808 122.936 198.769 122.29 198.65C122.815 198.005 123.341 197.355 123.866 196.711C123.878 196.698 123.889 196.686 123.899 196.672C124.166 196.342 124.435 196.015 124.701 195.685L124.701 195.685C124.716 194.673 124.599 193.664 124.356 192.682Z" fill="#F2F2F2"/>
<path d="M113.863 80.6945C105.883 80.6945 98.0822 78.3281 91.4471 73.8947C84.8121 69.4613 79.6407 63.16 76.5869 55.7875C73.5331 48.415 72.7341 40.3025 74.2909 32.4759C75.8477 24.6493 79.6904 17.4601 85.3331 11.8174C90.9757 6.17478 98.1649 2.33209 105.992 0.775279C113.818 -0.781528 121.931 0.0174812 129.303 3.07127C136.676 6.12505 142.977 11.2965 147.41 17.9315C151.844 24.5666 154.21 32.3673 154.21 40.3472C154.198 51.0443 149.943 61.2997 142.379 68.8637C134.815 76.4276 124.56 80.6824 113.863 80.6945ZM113.863 0.635408C106.009 0.635408 98.3307 2.96447 91.8002 7.32806C85.2696 11.6917 80.1796 17.8938 77.1739 25.1502C74.1682 32.4066 73.3818 40.3913 74.9141 48.0946C76.4464 55.798 80.2286 62.874 85.7824 68.4277C91.3362 73.9816 98.4121 77.7637 106.115 79.296C113.819 80.8283 121.804 80.0419 129.06 77.0362C136.316 74.0305 142.518 68.9405 146.882 62.41C151.246 55.8794 153.575 48.2015 153.575 40.3472C153.563 29.8187 149.375 19.7247 141.93 12.2799C134.485 4.83504 124.391 0.647306 113.863 0.635408Z" fill="#F2F2F2"/>
<path d="M118.283 54.9582H109.706C109.284 54.9582 108.88 54.7908 108.582 54.4929C108.285 54.195 108.117 53.791 108.117 53.3697C108.117 52.9484 108.285 52.5444 108.582 52.2465C108.88 51.9486 109.284 51.7812 109.706 51.7812H118.283C118.705 51.7812 119.109 51.9486 119.407 52.2465C119.705 52.5444 119.872 52.9484 119.872 53.3697C119.872 53.791 119.705 54.195 119.407 54.4929C119.109 54.7908 118.705 54.9582 118.283 54.9582Z" fill="#E6E6E6"/>
<path d="M120.255 101.066H107.736C107.121 101.066 106.532 100.822 106.097 100.387C105.662 99.9525 105.418 99.3629 105.418 98.748C105.418 98.1331 105.662 97.5435 106.097 97.1087C106.532 96.6739 107.121 96.4297 107.736 96.4297H120.255C120.87 96.4297 121.46 96.6739 121.894 97.1087C122.329 97.5435 122.573 98.1331 122.573 98.748C122.573 99.3629 122.329 99.9525 121.894 100.387C121.46 100.822 120.87 101.066 120.255 101.066Z" fill="#6912AA"/>
<path d="M155.845 91.3447H72.1563C71.4107 91.3439 70.6958 91.0473 70.1685 90.52C69.6412 89.9927 69.3446 89.2778 69.3438 88.5321V63.5821C69.3446 62.8364 69.6412 62.1216 70.1685 61.5943C70.6958 61.067 71.4107 60.7704 72.1563 60.7695H155.845C156.591 60.7704 157.306 61.067 157.833 61.5943C158.36 62.1216 158.657 62.8364 158.658 63.5821V88.5321C158.657 89.2778 158.36 89.9927 157.833 90.52C157.306 91.0473 156.591 91.3439 155.845 91.3447Z" fill="#E6E6E6"/>
<path d="M147.714 89.4513H74.0548C73.3091 89.4504 72.5942 89.1538 72.0669 88.6265C71.5397 88.0993 71.2431 87.3844 71.2422 86.6387V65.4845C71.2431 64.7388 71.5397 64.0239 72.0669 63.4966C72.5942 62.9693 73.3091 62.6727 74.0548 62.6719H153.949C154.694 62.6727 155.409 62.9693 155.937 63.4966C156.464 64.0239 156.76 64.7388 156.761 65.4845V80.4044C156.759 82.803 155.805 85.1025 154.109 86.7985C152.413 88.4946 150.113 89.4486 147.714 89.4513Z" fill="white"/>
<path d="M122.299 70.189H88.6629C88.4705 70.189 88.286 70.1126 88.15 69.9766C88.0139 69.8405 87.9375 69.656 87.9375 69.4637C87.9375 69.2713 88.0139 69.0868 88.15 68.9507C88.286 68.8147 88.4705 68.7383 88.6629 68.7383H122.299C122.492 68.7383 122.676 68.8147 122.812 68.9507C122.948 69.0868 123.025 69.2713 123.025 69.4637C123.025 69.656 122.948 69.8405 122.812 69.9766C122.676 70.1126 122.492 70.189 122.299 70.189Z" fill="#6912AA"/>
<path d="M139.327 73.1578H88.6629C88.4705 73.1578 88.286 73.0814 88.15 72.9453C88.0139 72.8093 87.9375 72.6248 87.9375 72.4324C87.9375 72.24 88.0139 72.0555 88.15 71.9195C88.286 71.7835 88.4705 71.707 88.6629 71.707H139.327C139.519 71.707 139.704 71.7835 139.84 71.9195C139.976 72.0555 140.052 72.24 140.052 72.4324C140.052 72.6248 139.976 72.8093 139.84 72.9453C139.704 73.0814 139.519 73.1578 139.327 73.1578Z" fill="#E6E6E6"/>
<path d="M139.328 76.5679H88.6644C88.569 76.5681 88.4745 76.5495 88.3863 76.5132C88.2982 76.4768 88.218 76.4234 88.1505 76.356C88.083 76.2886 88.0294 76.2086 87.9929 76.1205C87.9563 76.0324 87.9375 75.9379 87.9375 75.8426C87.9375 75.7472 87.9563 75.6527 87.9929 75.5646C88.0294 75.4765 88.083 75.3965 88.1505 75.3291C88.218 75.2617 88.2982 75.2083 88.3863 75.172C88.4745 75.1356 88.569 75.117 88.6644 75.1172H139.328C139.52 75.1176 139.704 75.1942 139.84 75.3302C139.976 75.4662 140.052 75.6504 140.052 75.8426C140.052 76.0347 139.976 76.2189 139.84 76.3549C139.704 76.4909 139.52 76.5675 139.328 76.5679Z" fill="#E6E6E6"/>
<path d="M139.328 79.9703H88.6644C88.569 79.9705 88.4745 79.9519 88.3863 79.9155C88.2982 79.8791 88.218 79.8257 88.1505 79.7584C88.083 79.691 88.0294 79.6109 87.9929 79.5228C87.9563 79.4347 87.9375 79.3403 87.9375 79.2449C87.9375 79.1495 87.9563 79.0551 87.9929 78.967C88.0294 78.8789 88.083 78.7988 88.1505 78.7315C88.218 78.6641 88.2982 78.6107 88.3863 78.5743C88.4745 78.5379 88.569 78.5193 88.6644 78.5195H139.328C139.52 78.5199 139.704 78.5965 139.84 78.7325C139.976 78.8685 140.052 79.0528 140.052 79.2449C140.052 79.437 139.976 79.6213 139.84 79.7573C139.704 79.8933 139.52 79.9699 139.328 79.9703Z" fill="#E6E6E6"/>
<path d="M139.328 83.3843H88.6644C88.569 83.3845 88.4745 83.3659 88.3863 83.3296C88.2982 83.2932 88.218 83.2398 88.1505 83.1724C88.083 83.105 88.0294 83.025 87.9929 82.9369C87.9563 82.8488 87.9375 82.7544 87.9375 82.659C87.9375 82.5636 87.9563 82.4691 87.9929 82.381C88.0294 82.2929 88.083 82.2129 88.1505 82.1455C88.218 82.0781 88.2982 82.0247 88.3863 81.9884C88.4745 81.952 88.569 81.9334 88.6644 81.9336H139.328C139.52 81.934 139.704 82.0106 139.84 82.1466C139.976 82.2826 140.052 82.4668 140.052 82.659C140.052 82.8511 139.976 83.0354 139.84 83.1714C139.704 83.3073 139.52 83.3839 139.328 83.3843Z" fill="#E6E6E6"/>
<path d="M183.845 195.645L180.446 195.645L178.828 182.531L183.846 182.532L183.845 195.645Z" fill="#A0616A"/>
<path d="M183.959 199.201L173.504 199.201V199.069C173.504 197.99 173.933 196.955 174.696 196.192C175.459 195.428 176.494 195 177.573 195L179.483 193.551L183.046 195L183.959 195L183.959 199.201Z" fill="#2F2E41"/>
<path d="M211.642 191.29L208.595 192.799L201.324 181.766L205.821 179.539L211.642 191.29Z" fill="#A0616A"/>
<path d="M213.319 194.421L203.95 199.062L203.892 198.944C203.413 197.977 203.337 196.859 203.682 195.836C204.027 194.814 204.764 193.97 205.731 193.491L206.8 191.345L210.636 191.061L211.453 190.656L213.319 194.421Z" fill="#2F2E41"/>
<path d="M173.773 125.161C173.773 125.161 169.903 130.556 172.697 139.877C175.49 149.198 173.922 157.531 174.706 159.202C175.49 160.873 177.068 162.46 175.764 163.726C174.46 164.993 173.773 166.023 174.803 166.367C175.833 166.71 179.267 190.747 179.267 190.747L185.105 191.09C185.105 191.09 187.219 179.924 184.96 170.914C184.96 170.914 185.456 164.372 184.422 162.451C183.388 160.529 183.591 162.262 183.661 159.851C183.7 158.106 183.954 156.374 184.418 154.692C184.761 153.318 184.96 139.475 184.96 139.475L190.643 157.845C190.871 158.478 190.956 159.154 190.893 159.824C190.753 160.77 190.752 162.184 190.924 162.679C191.096 163.174 191.288 163.278 191.192 164.256C191.096 165.234 202.533 185.852 202.533 185.852L208.216 182.04L202.617 163.963C202.061 163.347 201.598 162.653 201.243 161.903C200.557 160.529 200.53 160.454 200.887 159.461C201.243 158.469 201.243 156.536 201.243 155.957C201.243 155.379 201.6 129.111 197.13 125.248C192.659 121.384 173.773 125.161 173.773 125.161Z" fill="#2F2E41"/>
<path d="M194.767 83.3676L193.603 80.0563L190.426 76.8793L184.566 76.1797L180.751 78.6878L177.218 82.1709L172 125.487C172 125.487 196.648 134.989 199.877 127.014L194.767 83.3676Z" fill="#CCCCCC"/>
<path d="M196.769 83.3727L193.345 79.9492C193.345 79.9492 191.71 101.829 192.407 103.368C193.103 104.907 193.924 104.514 193.037 105.346C192.15 106.178 191.197 105.352 192.15 106.877C192.712 107.732 192.988 108.743 192.937 109.765C192.937 109.765 197.869 140.807 200.728 140.807C203.587 140.807 205.377 139.97 205.277 139.117C205.176 138.265 203.489 136.143 204.015 135.616C204.54 135.088 205.836 135.487 204.553 134.493C203.27 133.5 202.634 133.817 202.952 132.547C203.27 131.276 200.841 114.802 200.841 114.802L200.604 87.2853L196.769 83.3727Z" fill="#3F3D56"/>
<path d="M180.752 78.6953L176.319 79.3226L171.048 81.3346C171.048 81.3346 173.455 108.492 172.953 109.401C172.45 110.31 171.557 109.743 172.321 110.662C173.085 111.581 173.773 111.173 172.953 112.013C172.132 112.852 170.751 111.789 171.601 113.273C172.45 114.758 168.357 135.199 169.459 136.296C170.561 137.392 173.401 136.71 173.402 135.9C173.315 135.028 172.985 134.197 172.45 133.502C172.296 133.326 172.212 133.1 172.212 132.867C172.212 132.633 172.296 132.407 172.45 132.231C172.9 131.798 173.209 131.24 173.337 130.628C173.403 130.007 173.888 129.245 174.122 128.673C174.356 128.101 180.247 89.4088 180.247 89.4088L180.752 78.6953Z" fill="#3F3D56"/>
<path d="M161.836 100.072L163.836 99.0279C161.339 96.776 155.144 93.0915 155.144 93.0915L144.468 85.8937C144.312 85.5258 144.061 85.2055 143.742 84.9651C143.422 84.7247 143.045 84.5728 142.648 84.5245C142.251 84.4762 141.849 84.5333 141.481 84.69C141.113 84.8468 140.793 85.0976 140.553 85.4174C140.313 85.7371 140.162 86.1144 140.114 86.5113C140.066 86.9082 140.124 87.3107 140.281 87.6782C140.438 88.0458 140.689 88.3655 141.009 88.6051C141.329 88.8447 141.707 88.9958 142.104 89.0431L154.069 99.7625L161.836 100.072Z" fill="#A0616A"/>
<path d="M176.452 92.139L176.474 83.3598L171.597 81.0273L159.297 94.0451L158.343 93.4098H156.12L150.719 99.7636C150.719 99.7636 153.595 101.468 155.016 100.775C156.437 100.081 156.304 101.078 156.304 101.078C156.515 101.343 156.808 101.529 157.138 101.607C157.468 101.684 157.814 101.649 158.121 101.505C159.297 101.034 161.52 102.305 161.52 102.305L176.452 92.139Z" fill="#3F3D56"/>
<path d="M188.143 74.1733C192.071 74.1733 195.255 70.9891 195.255 67.0612C195.255 63.1334 192.071 59.9492 188.143 59.9492C184.215 59.9492 181.031 63.1334 181.031 67.0612C181.031 70.9891 184.215 74.1733 188.143 74.1733Z" fill="#A0616A"/>
<path d="M196.725 68.8615C196.054 70.1755 195.153 71.3587 194.064 72.3552C193.752 72.7103 193.353 72.9791 192.907 73.1357C192.683 73.2088 192.44 73.2009 192.22 73.1135C192.001 73.026 191.82 72.8644 191.707 72.6569L191.576 72.4768C191.957 72.3602 192.316 72.1824 192.64 71.9502C192.801 71.8333 192.932 71.6796 193.021 71.502C193.111 71.3244 193.157 71.128 193.155 70.9291C193.144 70.7304 193.056 70.5438 192.909 70.4087C192.763 70.2736 192.57 70.2004 192.371 70.2045C191.927 70.2573 191.53 70.7761 191.132 70.5761C190.81 70.4127 190.856 69.9446 190.949 69.5913C191.443 67.747 191.236 64.8885 190.524 64.7885C189.816 64.6443 189.141 64.3681 188.535 63.9743C187.928 63.5799 187.25 63.3073 186.539 63.1717C186.488 63.1649 186.436 63.1613 186.381 63.1568C186.36 62.7766 186.294 62.4002 186.184 62.0358C186.106 62.4206 185.988 62.796 185.831 63.1557C185.216 63.2397 184.594 63.2711 183.973 63.2497C183.311 63.1729 181.408 64.7156 181.394 64.5033C181.373 64.123 181.307 63.7466 181.196 63.3823C181.119 63.767 181.001 64.1424 180.844 64.5022C180.837 64.5169 180.834 64.5293 180.827 64.544C180.624 64.0508 180.566 63.4992 180.571 63.9111C180.147 61.2903 180.989 59.7124 183.14 58.1583C183.57 57.8156 184.079 57.5875 184.621 57.4955C184.892 57.4522 185.169 57.4794 185.426 57.5744C185.683 57.6693 185.911 57.8289 186.089 58.0377C186.914 57.6008 187.842 57.3928 188.775 57.4351C189.709 57.4773 190.614 57.7684 191.396 58.2782C192.944 59.3147 194.164 60.0043 193.958 61.8577C195.425 61.999 196.663 63.1767 197.127 64.5725C197.586 65.9706 197.347 67.5307 196.725 68.8615Z" fill="#2F2E41"/>
<path d="M205.799 105.922L200.697 105.191C198.971 108.077 198.358 115.757 198.358 115.757L193.364 127.626C193.034 127.851 192.768 128.158 192.594 128.518C192.42 128.878 192.344 129.278 192.373 129.676C192.403 130.075 192.537 130.459 192.762 130.789C192.987 131.12 193.295 131.385 193.655 131.559C194.015 131.732 194.415 131.808 194.813 131.778C195.212 131.748 195.596 131.613 195.926 131.388C196.256 131.163 196.521 130.854 196.694 130.494C196.867 130.133 196.942 129.734 196.912 129.335L205.111 115.521L205.799 105.922Z" fill="#A0616A"/>
<path d="M194.055 88.2239L196.217 85.2461L200.601 87.2834L204.247 101.349C204.247 101.349 206.91 103.081 206.342 104.304C205.774 105.526 205.472 106.513 206.059 107.213C206.646 107.913 208.356 107.965 207.082 109.107C205.809 110.249 206.899 113.233 206.899 113.233L205.678 115.957L198.054 115.64L194.055 88.2239Z" fill="#3F3D56"/>
<path d="M17.7049 131.847C18.1862 131.469 18.5011 130.919 18.5827 130.313C18.6643 129.706 18.5061 129.092 18.1418 128.601C18.0661 128.502 17.9825 128.41 17.8916 128.325L21.1474 120.807L17.9138 117.812L14.5673 128.594C14.2443 128.998 14.0642 129.497 14.0551 130.014C14.0459 130.531 14.2082 131.037 14.5166 131.452C14.6943 131.687 14.9165 131.884 15.1705 132.033C15.4245 132.181 15.7053 132.279 15.9969 132.319C16.2884 132.359 16.585 132.341 16.8698 132.267C17.1545 132.192 17.4218 132.063 17.6564 131.885C17.6727 131.872 17.6889 131.86 17.7049 131.847Z" fill="#FFB6B6"/>
<path d="M36.6252 83.0765C36.6252 83.0765 34.2151 78.4949 28.6244 83.4427C23.0336 88.3905 16.4271 113.156 16.5554 114.087C16.6837 115.019 18.0502 114.65 16.3218 115.991C14.5934 117.331 13.6377 116.127 14.5934 117.331C15.549 118.536 17.6861 119.812 15.7939 119.991C13.9016 120.17 20.8384 123.154 20.8384 123.154C20.8384 123.154 21.9295 122.892 22.2642 120.375C22.4523 118.961 21.8152 118.158 22.9367 117.922C24.0582 117.687 23.007 115.13 23.1684 114.727C23.3298 114.325 32.2848 96.7518 32.2848 96.7518L36.6252 83.0765Z" fill="#6912AA"/>
<path d="M47.626 194.972L51.674 194.971L53.6002 179.355L47.625 179.356L47.626 194.972Z" fill="#FFB6B6"/>
<path d="M47.4846 199.202L59.9344 199.201V199.044C59.9343 197.759 59.4238 196.526 58.515 195.617C57.6063 194.709 56.3738 194.198 55.0886 194.198H55.0883L52.8142 192.473L48.5712 194.198L47.4844 194.198L47.4846 199.202Z" fill="#2F2E41"/>
<path d="M19.2539 187.517L22.5656 189.845L33.1238 178.179L28.2355 174.742L19.2539 187.517Z" fill="#FFB6B6"/>
<path d="M16.707 190.902L26.8914 198.062L26.982 197.934C27.7211 196.882 28.0124 195.58 27.7917 194.314C27.5711 193.048 26.8566 191.922 25.8053 191.182L24.9372 188.463L20.4738 187.434L19.5848 186.809L16.707 190.902Z" fill="#2F2E41"/>
<path d="M31.5013 117.283L31.165 118.001C28.9538 122.725 28.3884 128.006 29.2477 133.15C29.3116 133.351 29.2994 133.569 29.2134 133.761C28.6805 134.386 29.5166 137.102 29.9959 138.618L30.4278 141.299C30.4278 141.299 29.7115 143.79 30.7995 143.607C31.8875 143.424 30.2674 146.08 31.3052 146.746L33.9973 163.457L22.7656 181.969L26.9255 188.001L43.565 166.577L43.773 147.234L46.2689 162.833L46.4769 187.377L54.0447 186.572L56.8174 162.777L54.1726 129.87L50.0128 115.602L31.5013 117.283Z" fill="#2F2E41"/>
<path d="M36.6982 74.4375L42.8206 74.729L45.7483 79.7868C47.0466 80.1763 48.2408 80.8524 49.2428 81.7652C50.2448 82.678 51.0291 83.8041 51.5376 85.0606L53.4441 89.7705L51.2753 117.003C51.2753 117.003 50.8406 118.65 51.6411 118.409C52.4415 118.169 52.1152 120.233 52.1152 120.233L55.0654 131.58L28.2435 129.247L29.7328 117.226C29.7328 117.226 27.6621 117.292 29.1181 115.837C30.574 114.381 31.2821 114.844 29.8835 113.123C28.4848 111.402 28.2768 110.154 28.2768 110.154L27.6529 101.626L26.6242 89.6247C26.4609 87.7203 26.7736 85.8053 27.5341 84.0517C28.2945 82.2982 29.4789 80.7611 30.9807 79.5788L36.6982 74.4375Z" fill="#6912AA"/>
<path d="M39.8698 73.0325C44.1578 73.0325 47.634 69.5563 47.634 65.2682C47.634 60.9801 44.1578 57.5039 39.8698 57.5039C35.5817 57.5039 32.1055 60.9801 32.1055 65.2682C32.1055 69.5563 35.5817 73.0325 39.8698 73.0325Z" fill="#FFB6B6"/>
<path d="M36.8732 72.4018C39.1013 72.3287 39.3037 71.7402 41.5318 71.6671C42.2412 71.6438 43.0784 71.5465 43.4213 70.9251C43.5212 70.6923 43.5656 70.4395 43.5512 70.1865C43.5368 69.9336 43.4639 69.6875 43.3382 69.4676C43.084 69.0309 42.8548 68.5801 42.6518 68.1174C42.5296 67.7545 42.4975 67.3673 42.5584 66.9892C42.6193 66.6111 42.7714 66.2536 43.0014 65.9475C43.2315 65.6414 43.5326 65.3959 43.8788 65.2322C44.225 65.0686 44.6059 64.9917 44.9884 65.0082C45.6665 65.0375 46.3033 65.3564 46.9794 65.4147C47.9067 65.4946 49.9572 62.4329 49.5303 61.6058C49.1147 60.8008 48.2784 60.1934 48.1469 59.297C48.0609 58.7107 48.303 58.1282 48.336 57.5365C48.3851 56.6593 46.1614 58.6373 46.5686 57.8587C47.5676 55.949 38.1538 53.5814 36.6039 55.9735C36.0247 56.8676 34.9924 56.8066 34.0723 57.3435C33.4693 57.6954 31.9466 58.9095 31.6004 59.6662C31.2823 60.4384 31.132 61.2693 31.1594 62.1039C31.1455 65.9856 31.7369 69.5561 34.8679 71.8506" fill="#2F2E41"/>
<path d="M58.914 131.514C58.4561 131.108 58.1746 130.54 58.1294 129.93C58.0841 129.32 58.2787 128.716 58.6717 128.248C58.7531 128.154 58.8421 128.066 58.9379 127.987L56.1367 120.288L59.5433 117.492L62.2403 128.454C62.5385 128.876 62.6885 129.386 62.6667 129.902C62.645 130.419 62.4529 130.914 62.1202 131.31C61.9288 131.534 61.6952 131.717 61.4328 131.851C61.1704 131.984 60.8843 132.064 60.5908 132.087C60.2974 132.11 60.0024 132.074 59.7226 131.983C59.4428 131.892 59.1837 131.746 58.9602 131.555C58.9446 131.541 58.9292 131.528 58.914 131.514Z" fill="#FFB6B6"/>
<path d="M42.9453 81.7056C42.9453 81.7056 45.6245 77.2761 50.91 82.5488C56.1954 87.8215 61.3118 112.938 61.1281 113.859C60.9445 114.781 59.6024 114.332 61.2477 115.773C62.893 117.215 63.9189 116.069 62.893 117.215C61.8672 118.36 59.6577 119.506 61.5359 119.798C63.4141 120.089 56.3115 122.654 56.3115 122.654C56.3115 122.654 55.238 122.328 55.0541 119.795C54.9508 118.372 55.6347 117.609 54.5293 117.306C53.4238 117.004 54.6258 114.515 54.4887 114.103C54.3516 113.692 46.4616 95.6156 46.4616 95.6156L42.9453 81.7056Z" fill="#6912AA"/>
<path d="M120.199 39.4828C120.2 40.7398 119.827 41.9687 119.129 43.014C118.431 44.0593 117.439 44.8742 116.277 45.3555C115.116 45.8368 113.838 45.963 112.605 45.7181C111.373 45.4732 110.24 44.8681 109.351 43.9795C108.462 43.0909 107.856 41.9586 107.611 40.7258C107.365 39.4931 107.491 38.2152 107.971 37.0537C108.452 35.8923 109.267 34.8995 110.312 34.2009C111.357 33.5023 112.585 33.1292 113.842 33.1289C114.677 33.1278 115.504 33.2914 116.276 33.6102C117.047 33.9291 117.748 34.397 118.339 34.9872C118.929 35.5774 119.397 36.2783 119.717 37.0497C120.036 37.8211 120.2 38.6479 120.199 39.4828Z" fill="#6912AA"/>
<path d="M113.978 40.4009C115.206 40.4009 116.202 39.4052 116.202 38.177C116.202 36.9488 115.206 35.9531 113.978 35.9531C112.75 35.9531 111.754 36.9488 111.754 38.177C111.754 39.4052 112.75 40.4009 113.978 40.4009Z" fill="white"/>
<path d="M116.366 41.1953H111.6C111.305 41.1956 111.023 41.3129 110.814 41.5213C110.606 41.7298 110.489 42.0124 110.488 42.3072C110.556 43.2596 110.705 44.2044 110.933 45.1315C111.889 45.624 112.954 45.8658 114.029 45.8341C115.103 45.8024 116.152 45.4984 117.077 44.9505C117.281 44.0815 117.415 43.1976 117.478 42.3072C117.477 42.0124 117.36 41.7298 117.152 41.5213C116.943 41.3129 116.66 41.1956 116.366 41.1953Z" fill="white"/>
<path d="M1.6733e-06 199.374C-0.000146395 199.424 0.00953366 199.473 0.0284815 199.519C0.0474294 199.565 0.0752693 199.607 0.110407 199.642C0.145544 199.677 0.187284 199.705 0.233221 199.724C0.279159 199.743 0.328388 199.752 0.378079 199.752H227.622C227.722 199.752 227.818 199.712 227.889 199.641C227.96 199.571 228 199.474 228 199.374C228 199.274 227.96 199.178 227.889 199.107C227.818 199.036 227.722 198.996 227.622 198.996H0.378079C0.328389 198.996 0.279158 199.006 0.233221 199.025C0.187285 199.044 0.145548 199.071 0.110411 199.106C0.0752744 199.142 0.04743 199.183 0.0284815 199.229C0.00953307 199.275 -0.000144708 199.324 1.6733e-06 199.374Z" fill="#CCCCCC"/>
</g>
<defs>
<clipPath id="clip0_2422_17496">
<rect width="228" height="199.751" fill="white"/>
</clipPath>
</defs>
</svg>
