<svg width="24" height="24" viewBox="0 0 24 24" fill="none" xmlns="http://www.w3.org/2000/svg">
<path d="M18.823 11.1268C19.767 10.4807 20.4609 9.53058 20.789 8.43478C20.889 8.57078 20.983 8.71178 21.071 8.85778C21.675 9.85678 22 11.0618 22 12.4978C22 14.7048 21.167 16.2478 20.32 17.2368C19.9339 17.6871 19.4901 18.0846 19 18.4188V20.2478C19.0001 20.4777 18.955 20.7053 18.8671 20.9178C18.7792 21.1302 18.6503 21.3232 18.4878 21.4859C18.3253 21.6485 18.1323 21.7775 17.9199 21.8655C17.7075 21.9535 17.4799 21.9988 17.25 21.9988H16C15.6022 21.9988 15.2206 21.8407 14.9393 21.5594C14.658 21.2781 14.5 20.8966 14.5 20.4988H12.5C12.5 20.8966 12.342 21.2781 12.0607 21.5594C11.7794 21.8407 11.3978 21.9988 11 21.9988H9.75C9.28587 21.9988 8.84075 21.8144 8.51256 21.4862C8.18437 21.158 8 20.7129 8 20.2488V19.5658C7.84331 19.5129 7.68855 19.4546 7.536 19.3908C6.76597 19.0742 6.06442 18.6117 5.47 18.0288C4.84096 17.3944 4.30102 16.6775 3.865 15.8978C3.83259 15.8332 3.78628 15.7765 3.7294 15.7319C3.67252 15.6873 3.60647 15.6559 3.536 15.6398C3.1068 15.5683 2.71689 15.3468 2.43563 15.0149C2.15437 14.6829 2 14.2619 2 13.8268V12.0738C2 11.2308 2.61 10.5118 3.44 10.3738C3.527 10.3588 3.656 10.2718 3.717 10.0898C3.909 9.51278 4.282 8.65578 4.97 7.96778C5.46584 7.48177 6.02326 7.06287 6.628 6.72178C6.764 6.64378 6.89 6.57678 7 6.52178V3.66878C7 2.73078 8.13 2.34578 8.74 2.95278C9.07 3.28178 9.55 3.71978 10.081 4.08678C10.611 4.45278 11.118 4.69378 11.535 4.74678C11.0405 5.727 10.8823 6.84274 11.085 7.92178C11.266 8.87878 11.999 9.48378 12.687 9.76978L16.383 11.2998C17.072 11.5848 18.017 11.6748 18.823 11.1258V11.1268ZM8 10.9978C8.26522 10.9978 8.51957 10.8924 8.70711 10.7049C8.89464 10.5173 9 10.263 9 9.99778C9 9.73256 8.89464 9.47821 8.70711 9.29067C8.51957 9.10313 8.26522 8.99778 8 8.99778C7.73478 8.99778 7.48043 9.10313 7.29289 9.29067C7.10536 9.47821 7 9.73256 7 9.99778C7 10.263 7.10536 10.5173 7.29289 10.7049C7.48043 10.8924 7.73478 10.9978 8 10.9978ZM18.259 10.3008C18.7229 9.98306 19.1148 9.57123 19.409 9.09209C19.7033 8.61296 19.8934 8.07723 19.967 7.51978C20.0415 6.94652 19.9909 6.36392 19.8186 5.81211C19.6463 5.2603 19.3564 4.75239 18.969 4.32337C18.5815 3.89434 18.1057 3.55439 17.5743 3.32693C17.0428 3.09947 16.4684 2.9899 15.8905 3.00578C15.3126 3.02165 14.7451 3.16259 14.2269 3.41889C13.7088 3.67518 13.2523 4.04074 12.889 4.4904C12.5257 4.94005 12.2642 5.4631 12.1224 6.02354C11.9807 6.58397 11.9621 7.16847 12.068 7.73678C12.093 7.86678 12.137 7.98878 12.198 8.10178C12.248 8.19478 12.308 8.28178 12.378 8.36178C12.56 8.57178 12.804 8.73578 13.07 8.84678L16.766 10.3768C17.256 10.5798 17.821 10.5998 18.259 10.3008Z" fill="#666666"/>
</svg>
