<svg width="24" height="24" viewBox="0 0 24 24" fill="none" xmlns="http://www.w3.org/2000/svg">
<path d="M16.14 2.95907L7.11 5.95907C1.04 7.98907 1.04 11.2991 7.11 13.3191L9.79 14.2091L10.68 16.8891C12.7 22.9591 16.02 22.9591 18.04 16.8891L21.05 7.86907C22.39 3.81907 20.19 1.60907 16.14 2.95907ZM16.46 8.33907L12.66 12.1591C12.51 12.3091 12.32 12.3791 12.13 12.3791C11.94 12.3791 11.75 12.3091 11.6 12.1591C11.4605 12.0179 11.3823 11.8275 11.3823 11.6291C11.3823 11.4306 11.4605 11.2402 11.6 11.0991L15.4 7.27907C15.69 6.98907 16.17 6.98907 16.46 7.27907C16.75 7.56907 16.75 8.04907 16.46 8.33907Z" fill="#6912AA"/>
</svg>
