<svg width="50" height="50" viewBox="0 0 50 50" fill="none" xmlns="http://www.w3.org/2000/svg">
<rect width="50" height="50" rx="15" fill="#22111F"/>
<path d="M29.1411 15.9591L20.1111 18.9591C14.0411 20.9891 14.0411 24.2991 20.1111 26.3191L22.7911 27.2091L23.6811 29.8891C25.7011 35.9591 29.0211 35.9591 31.0411 29.8891L34.0511 20.8691C35.3911 16.8191 33.1911 14.6091 29.1411 15.9591ZM29.4611 21.3391L25.6611 25.1591C25.5111 25.3091 25.3211 25.3791 25.1311 25.3791C24.9411 25.3791 24.7511 25.3091 24.6011 25.1591C24.4616 25.0179 24.3834 24.8275 24.3834 24.6291C24.3834 24.4306 24.4616 24.2402 24.6011 24.0991L28.4011 20.2791C28.6911 19.9891 29.1711 19.9891 29.4611 20.2791C29.7511 20.5691 29.7511 21.0491 29.4611 21.3391Z" fill="#F2F2F2"/>
</svg>
