<svg width="50" height="50" viewBox="0 0 50 50" fill="none" xmlns="http://www.w3.org/2000/svg">
<rect width="50" height="50" rx="15" fill="#1C052E"/>
<path d="M22.06 14.9297C20.17 14.9197 18.33 16.7397 19.17 18.9997H16C15.4696 18.9997 14.9609 19.2104 14.5858 19.5855C14.2107 19.9606 14 20.4693 14 20.9997V22.9997C14 23.2649 14.1054 23.5193 14.2929 23.7068C14.4804 23.8944 14.7348 23.9997 15 23.9997H24V20.9997H26V23.9997H35C35.2652 23.9997 35.5196 23.8944 35.7071 23.7068C35.8946 23.5193 36 23.2649 36 22.9997V20.9997C36 20.4693 35.7893 19.9606 35.4142 19.5855C35.0391 19.2104 34.5304 18.9997 34 18.9997H30.83C32 15.7297 27.6 13.4197 25.57 16.2397L25 16.9997L24.43 16.2197C23.8 15.3297 22.93 14.9397 22.06 14.9297ZM22 16.9997C22.89 16.9997 23.34 18.0797 22.71 18.7097C22.08 19.3397 21 18.8897 21 17.9997C21 17.7345 21.1054 17.4802 21.2929 17.2926C21.4804 17.1051 21.7348 16.9997 22 16.9997ZM28 16.9997C28.89 16.9997 29.34 18.0797 28.71 18.7097C28.08 19.3397 27 18.8897 27 17.9997C27 17.7345 27.1054 17.4802 27.2929 17.2926C27.4804 17.1051 27.7348 16.9997 28 16.9997ZM15 24.9997V32.9997C15 33.5302 15.2107 34.0389 15.5858 34.4139C15.9609 34.789 16.4696 34.9997 17 34.9997H33C33.5304 34.9997 34.0391 34.789 34.4142 34.4139C34.7893 34.0389 35 33.5302 35 32.9997V24.9997H26V32.9997H24V24.9997H15Z" fill="#F2F2F2"/>
</svg>
