<svg width="50" height="50" viewBox="0 0 50 50" fill="none" xmlns="http://www.w3.org/2000/svg">
<rect width="50" height="50" rx="15" fill="#2A2E05"/>
<path d="M17.5 16C17.5 15.2044 17.8161 14.4413 18.3787 13.8787C18.9413 13.3161 19.7044 13 20.5 13H29.5C30.2956 13 31.0587 13.3161 31.6213 13.8787C32.1839 14.4413 32.5 15.2044 32.5 16V34C32.5 34.7956 32.1839 35.5587 31.6213 36.1213C31.0587 36.6839 30.2956 37 29.5 37H20.5C19.7044 37 18.9413 36.6839 18.3787 36.1213C17.8161 35.5587 17.5 34.7956 17.5 34V16ZM26.5 32.5C26.5 32.1022 26.342 31.7206 26.0607 31.4393C25.7794 31.158 25.3978 31 25 31C24.6022 31 24.2206 31.158 23.9393 31.4393C23.658 31.7206 23.5 32.1022 23.5 32.5C23.5 32.8978 23.658 33.2794 23.9393 33.5607C24.2206 33.842 24.6022 34 25 34C25.3978 34 25.7794 33.842 26.0607 33.5607C26.342 33.2794 26.5 32.8978 26.5 32.5Z" fill="#F2F2F2"/>
</svg>
