<svg width="50" height="50" viewBox="0 0 50 50" fill="none" xmlns="http://www.w3.org/2000/svg">
<rect width="50" height="50" rx="15" fill="#003314"/>
<path d="M35 20.5484C35 21.2084 34.46 21.7484 33.8 21.7484H16.2C15.54 21.7484 15 21.2084 15 20.5484V20.5384C15 18.2484 16.85 16.3984 19.14 16.3984H30.85C33.14 16.3984 35 18.2584 35 20.5484ZM15 24.4504V29.4604C15 31.7504 16.85 33.6004 19.14 33.6004H30.85C33.14 33.6004 35 31.7404 35 29.4504V24.4504C35 23.7904 34.46 23.2504 33.8 23.2504H16.2C15.54 23.2504 15 23.7904 15 24.4504ZM21 30.2504H19C18.59 30.2504 18.25 29.9104 18.25 29.5004C18.25 29.0904 18.59 28.7504 19 28.7504H21C21.41 28.7504 21.75 29.0904 21.75 29.5004C21.75 29.9104 21.41 30.2504 21 30.2504ZM27.5 30.2504H23.5C23.09 30.2504 22.75 29.9104 22.75 29.5004C22.75 29.0904 23.09 28.7504 23.5 28.7504H27.5C27.91 28.7504 28.25 29.0904 28.25 29.5004C28.25 29.9104 27.91 30.2504 27.5 30.2504Z" fill="#F2F2F2"/>
</svg>
