<svg width="170" height="24" viewBox="0 0 170 24" fill="none" xmlns="http://www.w3.org/2000/svg">
<path d="M16.19 2H7.81C4.17 2 2 4.17 2 7.81V16.18C2 19.83 4.17 22 7.81 22H16.18C19.82 22 21.99 19.83 21.99 16.19V7.81C22 4.17 19.83 2 16.19 2ZM17.85 14.1C17.81 14.19 17.76 14.27 17.69 14.34L14.65 17.38C14.5 17.53 14.31 17.6 14.12 17.6C13.93 17.6 13.74 17.53 13.59 17.38C13.4505 17.2389 13.3723 17.0484 13.3723 16.85C13.3723 16.6516 13.4505 16.4611 13.59 16.32L15.35 14.56H6.85C6.44 14.56 6.1 14.22 6.1 13.81C6.1 13.4 6.44 13.06 6.85 13.06H17.16C17.26 13.06 17.35 13.08 17.45 13.12C17.63 13.2 17.78 13.34 17.86 13.53C17.92 13.71 17.92 13.92 17.85 14.1ZM17.15 10.93H6.85C6.75 10.93 6.66 10.91 6.56 10.87C6.37584 10.7909 6.22908 10.6442 6.15 10.46C6.11044 10.3702 6.09001 10.2731 6.09001 10.175C6.09001 10.0769 6.11044 9.97981 6.15 9.89C6.19 9.8 6.24 9.72 6.31 9.65L9.35 6.61C9.64 6.32 10.12 6.32 10.41 6.61C10.7 6.9 10.7 7.38 10.41 7.67L8.66 9.43H17.16C17.57 9.43 17.91 9.77 17.91 10.18C17.91 10.59 17.57 10.93 17.15 10.93Z" fill="#6912AA"/>
<path d="M48.44 6H59.52V8.58H55.48V20H52.48V8.58H48.44V6ZM66.3142 9.72V12.28H65.1942C64.3942 12.28 63.7942 12.52 63.4342 13C63.0542 13.48 62.8742 14.14 62.8742 14.96V20H60.0542V9.72H62.6142L62.8742 11.26C63.1742 10.76 63.5542 10.38 64.0142 10.12C64.4542 9.86 65.0742 9.72 65.8342 9.72H66.3142ZM77.4008 17.62V20H75.9608C74.6608 20 74.0208 19.44 74.0608 18.32C73.6808 18.92 73.2208 19.36 72.6808 19.66C72.1208 19.98 71.4608 20.12 70.7008 20.12C69.5408 20.12 68.6208 19.86 67.9208 19.34C67.2208 18.82 66.8808 18.06 66.8808 17.1C66.8808 16.02 67.2808 15.18 68.0808 14.58C68.8808 13.98 70.0608 13.68 71.6008 13.68H73.6408V13.18C73.6408 12.72 73.4608 12.36 73.1208 12.08C72.7608 11.8 72.3008 11.66 71.7208 11.66C71.2008 11.66 70.7608 11.78 70.4408 12C70.1008 12.24 69.9008 12.54 69.8408 12.92H67.1208C67.2008 11.88 67.6808 11.06 68.5208 10.48C69.3608 9.9 70.4608 9.6 71.8608 9.6C73.3008 9.6 74.4208 9.92 75.2208 10.56C76.0208 11.2 76.4208 12.14 76.4208 13.34V16.96C76.4208 17.22 76.4608 17.4 76.5808 17.48C76.6808 17.58 76.8408 17.62 77.0808 17.62H77.4008ZM73.6408 15.56H71.5808C70.9808 15.56 70.5208 15.68 70.2008 15.92C69.8808 16.16 69.7208 16.48 69.7208 16.9C69.7208 17.26 69.8408 17.56 70.1208 17.76C70.4008 17.98 70.7608 18.08 71.2408 18.08C71.9608 18.08 72.5408 17.88 72.9808 17.46C73.4008 17.04 73.6208 16.48 73.6408 15.76V15.56ZM87.3517 10.72C88.1117 11.48 88.5117 12.7 88.5117 14.42V20H85.6917V14.58C85.6917 12.82 84.9917 11.92 83.6117 11.92C82.8717 11.92 82.3117 12.18 81.9117 12.66C81.5117 13.16 81.3117 13.86 81.3117 14.74V20H78.4917V9.72H80.9517L81.2117 11C81.5717 10.56 81.9917 10.22 82.5117 9.98C83.0117 9.74 83.6317 9.6 84.3917 9.6C85.5917 9.6 86.5717 9.98 87.3517 10.72ZM92.5886 16.58C92.6286 17.04 92.8486 17.4 93.2486 17.68C93.6486 17.96 94.1486 18.1 94.7886 18.1C95.3886 18.1 95.8486 18.02 96.2086 17.82C96.5486 17.62 96.7286 17.34 96.7286 16.98C96.7286 16.72 96.6486 16.52 96.4886 16.38C96.3286 16.26 96.0886 16.16 95.8086 16.1C95.5086 16.04 95.0286 15.96 94.3686 15.88C93.4486 15.76 92.7086 15.62 92.1086 15.42C91.5086 15.24 91.0286 14.94 90.6686 14.54C90.3086 14.14 90.1286 13.62 90.1286 12.94C90.1286 12.28 90.3086 11.7 90.6686 11.18C91.0286 10.66 91.5486 10.26 92.2286 9.98C92.8886 9.7 93.6486 9.56 94.5286 9.56C95.9286 9.58 97.0486 9.88 97.9086 10.46C98.7686 11.06 99.2286 11.86 99.3086 12.9H96.6286C96.5886 12.52 96.3686 12.2 96.0086 11.96C95.6486 11.72 95.1686 11.58 94.6086 11.58C94.0686 11.58 93.6286 11.68 93.3086 11.88C92.9886 12.08 92.8286 12.36 92.8286 12.68C92.8286 12.92 92.9086 13.1 93.0886 13.22C93.2486 13.34 93.4886 13.44 93.7686 13.48C94.0486 13.54 94.5086 13.6 95.1686 13.66C96.5486 13.82 97.6086 14.12 98.3486 14.56C99.0886 15 99.4686 15.74 99.4686 16.78C99.4686 17.46 99.2686 18.04 98.8686 18.54C98.4686 19.06 97.9286 19.44 97.2286 19.72C96.5286 20 95.7286 20.12 94.8086 20.12C93.3686 20.12 92.2086 19.82 91.3286 19.18C90.4286 18.54 89.9486 17.68 89.9086 16.58H92.5886ZM111.209 17.62V20H109.769C108.469 20 107.829 19.44 107.869 18.32C107.489 18.92 107.029 19.36 106.489 19.66C105.929 19.98 105.269 20.12 104.509 20.12C103.349 20.12 102.429 19.86 101.729 19.34C101.029 18.82 100.689 18.06 100.689 17.1C100.689 16.02 101.089 15.18 101.889 14.58C102.689 13.98 103.869 13.68 105.409 13.68H107.449V13.18C107.449 12.72 107.269 12.36 106.929 12.08C106.569 11.8 106.109 11.66 105.529 11.66C105.009 11.66 104.569 11.78 104.249 12C103.909 12.24 103.709 12.54 103.649 12.92H100.929C101.009 11.88 101.489 11.06 102.329 10.48C103.169 9.9 104.269 9.6 105.669 9.6C107.109 9.6 108.229 9.92 109.029 10.56C109.829 11.2 110.229 12.14 110.229 13.34V16.96C110.229 17.22 110.269 17.4 110.389 17.48C110.489 17.58 110.649 17.62 110.889 17.62H111.209ZM107.449 15.56H105.389C104.789 15.56 104.329 15.68 104.009 15.92C103.689 16.16 103.529 16.48 103.529 16.9C103.529 17.26 103.649 17.56 103.929 17.76C104.209 17.98 104.569 18.08 105.049 18.08C105.769 18.08 106.349 17.88 106.789 17.46C107.209 17.04 107.429 16.48 107.449 15.76V15.56ZM120.58 19.06C119.7 19.78 118.58 20.12 117.2 20.12C116.12 20.12 115.2 19.92 114.4 19.48C113.6 19.04 112.98 18.42 112.54 17.62C112.1 16.82 111.9 15.9 111.9 14.86C111.9 13.82 112.1 12.9 112.54 12.1C112.98 11.3 113.6 10.7 114.4 10.26C115.2 9.82 116.14 9.6 117.22 9.6C118.58 9.6 119.7 9.96 120.58 10.66C121.44 11.36 121.98 12.32 122.18 13.56H119.26C119.14 13.06 118.9 12.66 118.54 12.36C118.18 12.06 117.72 11.9 117.2 11.9C116.46 11.9 115.88 12.18 115.44 12.72C115 13.28 114.78 13.98 114.78 14.86C114.78 15.74 115 16.46 115.44 17C115.88 17.56 116.46 17.82 117.2 17.82C117.74 17.82 118.2 17.68 118.56 17.36C118.92 17.06 119.16 16.64 119.28 16.1H122.18C121.98 17.36 121.46 18.34 120.58 19.06ZM124.367 12.1H122.667V9.72H124.367V6.84H127.187V9.72H129.527V12.1H127.187V16.6C127.187 16.96 127.247 17.22 127.407 17.38C127.567 17.54 127.827 17.62 128.187 17.62H129.647V20H127.307C125.347 20 124.367 19.02 124.367 17.06V12.1ZM133.415 5.9C133.715 6.2 133.875 6.58 133.875 7.02C133.875 7.48 133.715 7.86 133.415 8.16C133.095 8.48 132.715 8.62 132.255 8.62C131.775 8.62 131.395 8.48 131.075 8.16C130.755 7.86 130.615 7.48 130.615 7.02C130.615 6.58 130.755 6.2 131.075 5.9C131.395 5.6 131.775 5.44 132.255 5.44C132.715 5.44 133.095 5.6 133.415 5.9ZM130.835 9.72H133.655V20H130.835V9.72ZM137.781 19.48C136.961 19.04 136.321 18.42 135.881 17.62C135.441 16.82 135.221 15.9 135.221 14.86C135.221 13.82 135.441 12.9 135.881 12.1C136.321 11.3 136.961 10.7 137.781 10.26C138.601 9.82 139.561 9.6 140.641 9.6C141.721 9.6 142.661 9.82 143.481 10.26C144.301 10.7 144.941 11.3 145.381 12.1C145.821 12.9 146.061 13.82 146.061 14.86C146.061 15.92 145.821 16.84 145.381 17.64C144.941 18.44 144.301 19.04 143.481 19.48C142.661 19.92 141.721 20.12 140.641 20.12C139.561 20.12 138.601 19.92 137.781 19.48ZM142.501 17C142.961 16.46 143.201 15.74 143.201 14.86C143.201 13.98 142.961 13.28 142.501 12.72C142.041 12.18 141.421 11.9 140.641 11.9C139.861 11.9 139.241 12.18 138.781 12.72C138.321 13.28 138.101 13.98 138.101 14.86C138.101 15.74 138.321 16.46 138.781 17C139.241 17.56 139.861 17.82 140.641 17.82C141.421 17.82 142.041 17.56 142.501 17ZM156.473 10.72C157.233 11.48 157.633 12.7 157.633 14.42V20H154.813V14.58C154.813 12.82 154.113 11.92 152.733 11.92C151.993 11.92 151.433 12.18 151.033 12.66C150.633 13.16 150.433 13.86 150.433 14.74V20H147.613V9.72H150.073L150.333 11C150.693 10.56 151.113 10.22 151.633 9.98C152.133 9.74 152.753 9.6 153.513 9.6C154.713 9.6 155.693 9.98 156.473 10.72ZM161.71 16.58C161.75 17.04 161.97 17.4 162.37 17.68C162.77 17.96 163.27 18.1 163.91 18.1C164.51 18.1 164.97 18.02 165.33 17.82C165.67 17.62 165.85 17.34 165.85 16.98C165.85 16.72 165.77 16.52 165.61 16.38C165.45 16.26 165.21 16.16 164.93 16.1C164.63 16.04 164.15 15.96 163.49 15.88C162.57 15.76 161.83 15.62 161.23 15.42C160.63 15.24 160.15 14.94 159.79 14.54C159.43 14.14 159.25 13.62 159.25 12.94C159.25 12.28 159.43 11.7 159.79 11.18C160.15 10.66 160.67 10.26 161.35 9.98C162.01 9.7 162.77 9.56 163.65 9.56C165.05 9.58 166.17 9.88 167.03 10.46C167.89 11.06 168.35 11.86 168.43 12.9H165.75C165.71 12.52 165.49 12.2 165.13 11.96C164.77 11.72 164.29 11.58 163.73 11.58C163.19 11.58 162.75 11.68 162.43 11.88C162.11 12.08 161.95 12.36 161.95 12.68C161.95 12.92 162.03 13.1 162.21 13.22C162.37 13.34 162.61 13.44 162.89 13.48C163.17 13.54 163.63 13.6 164.29 13.66C165.67 13.82 166.73 14.12 167.47 14.56C168.21 15 168.59 15.74 168.59 16.78C168.59 17.46 168.39 18.04 167.99 18.54C167.59 19.06 167.05 19.44 166.35 19.72C165.65 20 164.85 20.12 163.93 20.12C162.49 20.12 161.33 19.82 160.45 19.18C159.55 18.54 159.07 17.68 159.03 16.58H161.71Z" fill="#262626"/>
</svg>
