<svg width="50" height="50" viewBox="0 0 50 50" fill="none" xmlns="http://www.w3.org/2000/svg">
<rect width="50" height="50" rx="15" fill="#1C052E"/>
<path d="M35 32V35H15V32C15 31.45 15.45 31 16 31H34C34.55 31 35 31.45 35 32Z" fill="#F2F2F2" stroke="#F2F2F2" stroke-width="1.5" stroke-miterlimit="10" stroke-linecap="round" stroke-linejoin="round"/>
<path d="M20 23.9998H18V30.9998H20V23.9998ZM24 23.9998H22V30.9998H24V23.9998ZM28 23.9998H26V30.9998H28V23.9998ZM32 23.9998H30V30.9998H32V23.9998ZM36 35.7498H14C13.59 35.7498 13.25 35.4098 13.25 34.9998C13.25 34.5898 13.59 34.2498 14 34.2498H36C36.41 34.2498 36.75 34.5898 36.75 34.9998C36.75 35.4098 36.41 35.7498 36 35.7498ZM34.37 18.7498L25.37 15.1498C25.17 15.0698 24.83 15.0698 24.63 15.1498L15.63 18.7498C15.28 18.8898 15 19.2998 15 19.6798V22.9998C15 23.5498 15.45 23.9998 16 23.9998H34C34.55 23.9998 35 23.5498 35 22.9998V19.6798C35 19.2998 34.72 18.8898 34.37 18.7498ZM25 21.4998C24.17 21.4998 23.5 20.8298 23.5 19.9998C23.5 19.1698 24.17 18.4998 25 18.4998C25.83 18.4998 26.5 19.1698 26.5 19.9998C26.5 20.8298 25.83 21.4998 25 21.4998Z" fill="#F2F2F2"/>
</svg>
