<svg width="50" height="50" viewBox="0 0 50 50" fill="none" xmlns="http://www.w3.org/2000/svg">
<rect width="50" height="50" rx="15" fill="#003314"/>
<path d="M27.85 16.9508V20.7508H26.35V16.9508C26.35 16.6808 26.11 16.5508 25.95 16.5508C25.9 16.5508 25.85 16.5608 25.8 16.5808L17.87 19.5708C17.34 19.7708 17 20.2708 17 20.8408V21.5108C16.09 22.1908 15.5 23.2808 15.5 24.5108V20.8408C15.5 19.6508 16.23 18.5908 17.34 18.1708L25.28 15.1708C25.5 15.0908 25.73 15.0508 25.95 15.0508C26.95 15.0508 27.85 15.8608 27.85 16.9508ZM34.5 27.5008V28.5008C34.5 28.6317 34.4487 28.7574 34.3571 28.8508C34.2655 28.9443 34.1409 28.9982 34.01 29.0008H32.55C32.02 29.0008 31.54 28.6108 31.5 28.0908C31.47 27.7808 31.59 27.4908 31.79 27.2908C31.8805 27.197 31.9894 27.1229 32.1098 27.073C32.2303 27.0231 32.3597 26.9985 32.49 27.0008H34C34.29 27.0108 34.5 27.2308 34.5 27.5008Z" fill="#F2F2F2"/>
<path d="M32.48 25.95H33.5C34.05 25.95 34.5 25.5 34.5 24.95V24.51C34.5 22.44 32.81 20.75 30.74 20.75H19.26C18.41 20.75 17.63 21.03 17 21.51C16.09 22.19 15.5 23.28 15.5 24.51V31.24C15.5 33.31 17.19 35 19.26 35H30.74C32.81 35 34.5 33.31 34.5 31.24V31.05C34.5 30.5 34.05 30.05 33.5 30.05H32.63C31.67 30.05 30.75 29.46 30.5 28.53C30.29 27.77 30.54 27.04 31.04 26.55C31.41 26.17 31.92 25.95 32.48 25.95ZM27 25.75H20C19.59 25.75 19.25 25.41 19.25 25C19.25 24.59 19.59 24.25 20 24.25H27C27.41 24.25 27.75 24.59 27.75 25C27.75 25.41 27.41 25.75 27 25.75Z" fill="#F2F2F2"/>
</svg>
