<svg width="81" height="15" viewBox="0 0 81 15" fill="none" xmlns="http://www.w3.org/2000/svg">
<path d="M13.1178 0.529297L8.75082 7.15911L5.12748 1.68034V8.27692L8.04113 12.5654H9.44353L12.3558 8.28749V14.2134H15.9254V0.529297H13.1178Z" fill="white"/>
<path d="M4.34287 4.12592H0.808594V14.1892H4.34287V4.12592Z" fill="white"/>
<path d="M4.34287 0.559508H0.808594V3.07609H4.34287V0.559508Z" fill="#FED518"/>
<path d="M21.6311 12.1605H19.3197V2.60782H21.6311V12.1605Z" fill="white"/>
<path d="M22.83 12.1605V2.60782H25.0919V3.93861C25.5683 3.01113 26.6328 2.34196 27.8953 2.34196C28.8158 2.3233 29.7058 2.69477 30.3707 3.37518C31.0422 4.05795 31.3871 5.03678 31.3871 6.31773V12.1605H29.0828V6.98691C29.0828 5.46276 28.3279 4.62138 27.1969 4.62138C25.9684 4.62138 25.1484 5.61986 25.1484 7.03827V12.1605H22.83Z" fill="white"/>
<path d="M41.2718 8.24671H34.568C34.8946 9.59563 35.764 10.2784 37.1735 10.2784C38.2 10.2491 39.1989 9.91597 40.0588 9.31618L40.9763 11.0488C39.8436 11.9265 38.4749 12.3877 37.0759 12.363C35.501 12.363 34.305 11.872 33.4695 10.9098C32.634 9.94759 32.2241 8.75576 32.2241 7.3721C32.2241 5.91744 32.6482 4.72712 33.519 3.78152C34.3899 2.83591 35.4982 2.36311 36.878 2.36311C38.173 2.36311 39.2559 2.80117 40.0914 3.65916C40.9269 4.51715 41.3538 5.67273 41.3538 7.16213C41.3484 7.52517 41.321 7.88745 41.2718 8.24671ZM34.568 6.40837H39.1074C38.8939 5.16518 38.0584 4.41142 36.878 4.41142C35.6975 4.41142 34.8465 5.16518 34.568 6.40837Z" fill="white"/>
<path d="M55.7793 3.41294C56.4678 4.13196 56.8113 5.11231 56.8113 6.39024V12.1605H54.4999V6.84643C54.4999 5.39176 53.7789 4.62138 52.7144 4.62138C51.5495 4.62138 50.7465 5.51563 50.7465 6.91591V12.1605H48.4365V6.87362C48.4365 5.45521 47.7296 4.63196 46.6326 4.63196C45.5016 4.63196 44.6817 5.5262 44.6817 6.94461V12.1605H42.3717V2.60782H44.6336V3.96731C44.9069 3.45875 45.3042 3.03896 45.7832 2.75272C46.2622 2.46648 46.805 2.32451 47.3536 2.34196C48.469 2.34196 49.501 2.9205 49.976 4.0232C50.632 2.97639 51.8435 2.34196 53.1724 2.34196C54.2384 2.34196 55.1064 2.69543 55.7793 3.41294Z" fill="white"/>
<path d="M59.1736 3.81626C60.0756 2.83339 61.223 2.34196 62.616 2.34196C64.009 2.34196 65.156 2.83239 66.057 3.81324C66.4962 4.27658 66.8421 4.83107 67.0733 5.4426C67.3046 6.05412 67.4162 6.70973 67.4014 7.36908C67.4014 8.78748 66.9589 9.9778 66.057 10.9415C65.155 11.9053 64.0085 12.3947 62.616 12.3947C61.2235 12.3947 60.0713 11.9053 59.1736 10.9415C58.2759 9.9778 57.8292 8.78748 57.8292 7.36908C57.8148 6.71023 57.9266 6.0552 58.1578 5.44423C58.389 4.83325 58.7347 4.27925 59.1736 3.81626ZM62.616 10.1032C62.9436 10.1112 63.269 10.0452 63.5711 9.90959C63.8732 9.77398 64.1451 9.57177 64.369 9.31618C64.8387 8.7943 65.0976 8.09609 65.09 7.3721C65.0954 7.01579 65.0345 6.66188 64.9107 6.33098C64.7869 6.00008 64.6028 5.69878 64.369 5.44463C64.1452 5.18882 63.8734 4.98645 63.5713 4.85082C63.2692 4.71519 62.9436 4.64935 62.616 4.65764C62.2857 4.64923 61.9573 4.71493 61.6522 4.85049C61.3471 4.98604 61.072 5.18844 60.8446 5.44463C60.6127 5.69952 60.4308 6.00129 60.3094 6.33225C60.188 6.66322 60.1297 7.01673 60.1378 7.3721C60.1246 8.09429 60.3786 8.79287 60.8446 9.31618C61.0722 9.57207 61.3474 9.77427 61.6524 9.9098C61.9575 10.0453 62.2857 10.1112 62.616 10.1032Z" fill="white"/>
<path d="M68.6441 12.1605V2.60782H70.906V3.93861C71.381 3.01113 72.4455 2.34196 73.708 2.34196C74.6285 2.32313 75.5185 2.69463 76.1834 3.37518C76.8549 4.05795 77.1998 5.03678 77.1998 6.31773V12.1605H74.887V6.98691C74.887 5.46276 74.1335 4.62138 73.0025 4.62138C71.7726 4.62138 70.9526 5.61986 70.9526 7.03827V12.1605H68.6441Z" fill="white"/>
<path d="M80.7525 12.1605H78.4411V2.60782H80.7525V12.1605Z" fill="white"/>
</svg>
