<svg width="81" height="14" viewBox="0 0 81 14" fill="none" xmlns="http://www.w3.org/2000/svg">
<path d="M13.1185 0.253906L8.75128 6.53515L5.12773 1.34443V7.59419L8.04156 11.6572H9.44404L12.3565 7.6042V13.2185H15.9263V0.253906H13.1185Z" fill="#6912AA"/>
<path d="M4.34308 3.66143H0.808594V13.1956H4.34308V3.66143Z" fill="#6912AA"/>
<path d="M4.34308 0.282529H0.808594V2.6668H4.34308V0.282529Z" fill="#FED518"/>
<path d="M21.6323 11.2736H19.3208V2.22314H21.6323V11.2736Z" fill="black"/>
<path d="M22.8312 11.2736V2.22314H25.0933V3.48397C25.5698 2.60526 26.6343 1.97127 27.8969 1.97127C28.8174 1.95358 29.7074 2.30552 30.3724 2.95016C31.044 3.59703 31.3889 4.52441 31.3889 5.73801V11.2736H29.0844V6.372C29.0844 4.92799 28.3295 4.13084 27.1985 4.13084C25.9699 4.13084 25.1499 5.07682 25.1499 6.42066V11.2736H22.8312Z" fill="black"/>
<path d="M41.2742 7.56556H34.57C34.8965 8.84356 35.766 9.49044 37.1756 9.49044C38.2022 9.46264 39.2011 9.14706 40.0611 8.5788L40.9787 10.2203C39.8459 11.0519 38.4771 11.4888 37.078 11.4654C35.5031 11.4654 34.307 11.0003 33.4714 10.0887C32.6359 9.17702 32.2259 8.04785 32.2259 6.73694C32.2259 5.35876 32.65 4.23102 33.5209 3.33513C34.3918 2.43925 35.5002 1.9913 36.8801 1.9913C38.1751 1.9913 39.2581 2.40633 40.0936 3.21921C40.9292 4.0321 41.3562 5.12691 41.3562 6.53801C41.3508 6.88196 41.3234 7.2252 41.2742 7.56556ZM34.57 5.82387H39.1096C38.8962 4.64605 38.0606 3.93192 36.8801 3.93192C35.6996 3.93192 34.8485 4.64605 34.57 5.82387Z" fill="black"/>
<path d="M55.7825 2.98594C56.471 3.66716 56.8146 4.59596 56.8146 5.8067V11.2736H54.503V6.2389C54.503 4.86072 53.782 4.13084 52.7174 4.13084C51.5524 4.13084 50.7494 4.97807 50.7494 6.30473V11.2736H48.4393V6.26466C48.4393 4.92083 47.7324 4.14086 46.6353 4.14086C45.5042 4.14086 44.6842 4.98809 44.6842 6.33193V11.2736H42.3741V2.22314H44.6362V3.51116C44.9095 3.02934 45.3068 2.63162 45.7859 2.36043C46.2649 2.08924 46.8077 1.95474 47.3563 1.97127C48.4718 1.97127 49.5039 2.51939 49.9789 3.56412C50.6349 2.57234 51.8465 1.97127 53.1755 1.97127C54.2415 1.97127 55.1095 2.30615 55.7825 2.98594Z" fill="black"/>
<path d="M59.177 3.36805C60.079 2.43686 61.2266 1.97127 62.6196 1.97127C64.0127 1.97127 65.1597 2.43591 66.0608 3.36519C66.5001 3.80417 66.846 4.32951 67.0772 4.90888C67.3084 5.48825 67.4201 6.10939 67.4053 6.73407C67.4053 8.07791 66.9628 9.20564 66.0608 10.1187C65.1588 11.0318 64.0122 11.4955 62.6196 11.4955C61.227 11.4955 60.0748 11.0318 59.177 10.1187C58.2793 9.20564 57.8325 8.07791 57.8325 6.73407C57.8181 6.10987 57.9299 5.48927 58.1612 4.91043C58.3924 4.33158 58.7381 3.8067 59.177 3.36805ZM62.6196 9.32443C62.9472 9.332 63.2727 9.26951 63.5748 9.14102C63.8769 9.01254 64.1488 8.82096 64.3727 8.5788C64.8424 8.08436 65.1014 7.42287 65.0938 6.73694C65.0992 6.39936 65.0382 6.06406 64.9144 5.75056C64.7907 5.43705 64.6065 5.1516 64.3727 4.91081C64.1489 4.66845 63.8771 4.47672 63.5749 4.34822C63.2728 4.21972 62.9472 4.15734 62.6196 4.16519C62.2893 4.15723 61.9609 4.21947 61.6558 4.3479C61.3507 4.47633 61.0755 4.66809 60.8481 4.91081C60.6162 5.1523 60.4343 5.4382 60.3129 5.75177C60.1915 6.06533 60.1331 6.40026 60.1412 6.73694C60.1281 7.42116 60.3821 8.08301 60.8481 8.5788C61.0757 8.82124 61.3509 9.01281 61.656 9.14122C61.9611 9.26963 62.2893 9.33203 62.6196 9.32443Z" fill="black"/>
<path d="M68.648 11.2736V2.22314H70.9101V3.48397C71.3851 2.60526 72.4497 1.97127 73.7122 1.97127C74.6328 1.95343 75.5229 2.30539 76.1878 2.95016C76.8593 3.59703 77.2043 4.52441 77.2043 5.73801V11.2736H74.8913V6.372C74.8913 4.92799 74.1378 4.13084 73.0067 4.13084C71.7767 4.13084 70.9567 5.07682 70.9567 6.42066V11.2736H68.648Z" fill="black"/>
<path d="M80.7572 11.2736H78.4456V2.22314H80.7572V11.2736Z" fill="black"/>
</svg>
