<svg width="58" height="20" viewBox="0 0 58 20" fill="none" xmlns="http://www.w3.org/2000/svg">
<path d="M37.7775 0C33.6593 0 29.979 2.213 29.979 6.30168C29.979 10.9906 36.5061 11.3144 36.5061 13.67C36.5061 14.6618 35.4097 15.5497 33.5372 15.5497C30.8797 15.5497 28.8935 14.3091 28.8935 14.3091L28.0436 18.4351C28.0436 18.4351 30.3317 19.483 33.3695 19.483C37.872 19.483 41.415 17.1613 41.415 13.0028C41.415 8.04807 34.8608 7.73381 34.8608 5.54748C34.8608 4.77041 35.7607 3.91912 37.6279 3.91912C39.7346 3.91912 41.4535 4.82139 41.4535 4.82139L42.2853 0.83648C42.2853 0.83648 40.415 0 37.7775 0ZM0.0997437 0.300776L0 0.902269C0 0.902269 1.73257 1.23097 3.29299 1.88676C5.30215 2.63867 5.44532 3.07644 5.78369 4.43604L9.47095 19.1728H14.4139L22.0288 0.300776H17.0972L12.2042 13.132L10.2076 2.25561C10.0245 1.01085 9.09694 0.300776 7.96162 0.300776H0.0997437ZM24.0118 0.300776L20.1432 19.1728H24.8458L28.7009 0.300716L24.0118 0.300776ZM50.2401 0.300776C49.1061 0.300776 48.5053 0.930198 48.0644 2.03007L41.1747 19.1728H46.1063L47.0604 16.3156H53.0684L53.6487 19.1728H58L54.2039 0.300776H50.2401ZM50.8814 5.39941L52.3432 12.4811H48.427L50.8814 5.39941Z" fill="#0B1F51"/>
</svg>
